<mxfile host="app.diagrams.net" modified="2023-01-18T09:36:29.190Z" agent="5.0 (Windows)" etag="umybQAOLm6j-v4i68TpD" version="20.8.5" type="github">
  <diagram id="mFV4b9mCCrI5YmX5gzNI" name="Page-1">
    <mxGraphModel dx="2876" dy="2246" grid="1" gridSize="10" guides="1" tooltips="1" connect="1" arrows="1" fold="1" page="1" pageScale="1" pageWidth="827" pageHeight="1169" math="0" shadow="0">
      <root>
        <mxCell id="0" />
        <mxCell id="1" parent="0" />
        <mxCell id="2GncXm-soGQ-psTZypHw-3" value="&lt;font size=&quot;1&quot;&gt;&lt;b style=&quot;font-size: 14px;&quot;&gt;V0.8 R&lt;/b&gt;&lt;/font&gt;" style="ellipse;shape=cloud;whiteSpace=wrap;html=1;fillColor=#ffe6cc;strokeColor=#d79b00;" parent="1" vertex="1">
          <mxGeometry x="342" y="-45" width="101.5" height="70" as="geometry" />
        </mxCell>
        <mxCell id="vozaQE-ynMEkPl2pL4Hx-13" value="" style="ellipse;shape=cloud;whiteSpace=wrap;html=1;fontSize=15;fillColor=#d5e8d4;strokeColor=#82b366;" parent="1" vertex="1">
          <mxGeometry x="730.8" y="810" width="105" height="66" as="geometry" />
        </mxCell>
        <mxCell id="FTLLSDSXX8i168MmgbQK-34" value="" style="ellipse;whiteSpace=wrap;html=1;aspect=fixed;fontSize=15;fillColor=#ffe6cc;strokeColor=#d79b00;" parent="1" vertex="1">
          <mxGeometry x="1488.38" y="-922" width="80" height="80" as="geometry" />
        </mxCell>
        <mxCell id="FTLLSDSXX8i168MmgbQK-18" value="" style="ellipse;whiteSpace=wrap;html=1;aspect=fixed;fontSize=15;" parent="1" vertex="1">
          <mxGeometry x="1798.38" y="-938" width="70" height="70" as="geometry" />
        </mxCell>
        <mxCell id="c0jgc6a0JRqWWvqa6Sk8-84" value="" style="ellipse;whiteSpace=wrap;html=1;aspect=fixed;fontSize=15;fillColor=#d5e8d4;strokeColor=#82b366;" parent="1" vertex="1">
          <mxGeometry x="334.38" y="-960" width="70" height="70" as="geometry" />
        </mxCell>
        <mxCell id="c0jgc6a0JRqWWvqa6Sk8-82" value="" style="ellipse;whiteSpace=wrap;html=1;aspect=fixed;fontSize=15;fillColor=#ffe6cc;strokeColor=#d79b00;" parent="1" vertex="1">
          <mxGeometry x="1664.38" y="-915" width="70" height="70" as="geometry" />
        </mxCell>
        <mxCell id="c0jgc6a0JRqWWvqa6Sk8-81" value="" style="ellipse;whiteSpace=wrap;html=1;aspect=fixed;fontSize=15;fillColor=#ffe6cc;strokeColor=#d79b00;" parent="1" vertex="1">
          <mxGeometry x="1664.38" y="-970" width="70" height="70" as="geometry" />
        </mxCell>
        <mxCell id="c0jgc6a0JRqWWvqa6Sk8-79" value="" style="ellipse;whiteSpace=wrap;html=1;aspect=fixed;fontSize=15;fillColor=#d5e8d4;strokeColor=#82b366;" parent="1" vertex="1">
          <mxGeometry x="1289.38" y="-960" width="70" height="70" as="geometry" />
        </mxCell>
        <mxCell id="c0jgc6a0JRqWWvqa6Sk8-77" value="" style="ellipse;whiteSpace=wrap;html=1;aspect=fixed;fontSize=15;fillColor=#ffe6cc;strokeColor=#d79b00;" parent="1" vertex="1">
          <mxGeometry x="634.38" y="-961" width="70" height="70" as="geometry" />
        </mxCell>
        <mxCell id="c0jgc6a0JRqWWvqa6Sk8-76" value="" style="ellipse;whiteSpace=wrap;html=1;aspect=fixed;fontSize=15;fillColor=#ffe6cc;strokeColor=#d79b00;" parent="1" vertex="1">
          <mxGeometry x="819.38" y="-960" width="70" height="70" as="geometry" />
        </mxCell>
        <mxCell id="c0jgc6a0JRqWWvqa6Sk8-75" value="" style="ellipse;whiteSpace=wrap;html=1;aspect=fixed;fontSize=15;fillColor=#d5e8d4;strokeColor=#82b366;" parent="1" vertex="1">
          <mxGeometry x="749.38" y="-960" width="70" height="70" as="geometry" />
        </mxCell>
        <mxCell id="c0jgc6a0JRqWWvqa6Sk8-70" value="" style="ellipse;whiteSpace=wrap;html=1;aspect=fixed;fontSize=15;fillColor=#ffe6cc;strokeColor=#d79b00;" parent="1" vertex="1">
          <mxGeometry x="1094.38" y="-925" width="80" height="80" as="geometry" />
        </mxCell>
        <mxCell id="c0jgc6a0JRqWWvqa6Sk8-69" value="" style="ellipse;whiteSpace=wrap;html=1;aspect=fixed;fontSize=15;fillColor=#d5e8d4;strokeColor=#82b366;" parent="1" vertex="1">
          <mxGeometry x="1099.38" y="-960" width="70" height="70" as="geometry" />
        </mxCell>
        <mxCell id="c0jgc6a0JRqWWvqa6Sk8-67" value="" style="ellipse;whiteSpace=wrap;html=1;aspect=fixed;fontSize=15;direction=south;fillColor=#d5e8d4;strokeColor=#82b366;" parent="1" vertex="1">
          <mxGeometry x="522.88" y="-980" width="60" height="60" as="geometry" />
        </mxCell>
        <mxCell id="c0jgc6a0JRqWWvqa6Sk8-1" value="" style="shape=flexArrow;endArrow=classic;html=1;rounded=0;" parent="1" edge="1">
          <mxGeometry width="50" height="50" relative="1" as="geometry">
            <mxPoint x="160" y="-50" as="sourcePoint" />
            <mxPoint x="1890" y="-50" as="targetPoint" />
          </mxGeometry>
        </mxCell>
        <mxCell id="c0jgc6a0JRqWWvqa6Sk8-2" value="&lt;font style=&quot;font-size: 20px;&quot;&gt;&lt;b&gt;Protools&lt;/b&gt;&lt;/font&gt;" style="text;html=1;strokeColor=none;fillColor=none;align=center;verticalAlign=middle;whiteSpace=wrap;rounded=0;" parent="1" vertex="1">
          <mxGeometry x="10" y="-70" width="60" height="30" as="geometry" />
        </mxCell>
        <mxCell id="c0jgc6a0JRqWWvqa6Sk8-3" value="" style="rhombus;whiteSpace=wrap;html=1;fillColor=#d5e8d4;strokeColor=#82b366;" parent="1" vertex="1">
          <mxGeometry x="558.5" y="-50" width="80" height="80" as="geometry" />
        </mxCell>
        <mxCell id="c0jgc6a0JRqWWvqa6Sk8-5" value="&lt;font style=&quot;font-size: 15px;&quot;&gt;&lt;b&gt;V0.9&lt;/b&gt;&lt;/font&gt;" style="text;html=1;strokeColor=none;fillColor=none;align=center;verticalAlign=middle;whiteSpace=wrap;rounded=0;" parent="1" vertex="1">
          <mxGeometry x="568.5" y="-25" width="60" height="30" as="geometry" />
        </mxCell>
        <mxCell id="c0jgc6a0JRqWWvqa6Sk8-6" value="" style="rhombus;whiteSpace=wrap;html=1;fillColor=#d5e8d4;strokeColor=#82b366;" parent="1" vertex="1">
          <mxGeometry x="442.5" y="-50" width="80" height="80" as="geometry" />
        </mxCell>
        <mxCell id="c0jgc6a0JRqWWvqa6Sk8-7" value="&lt;font style=&quot;font-size: 15px;&quot;&gt;&lt;b&gt;V0.8&lt;/b&gt;&lt;/font&gt;" style="text;html=1;strokeColor=none;fillColor=none;align=center;verticalAlign=middle;whiteSpace=wrap;rounded=0;" parent="1" vertex="1">
          <mxGeometry x="452.5" y="-25" width="60" height="30" as="geometry" />
        </mxCell>
        <mxCell id="c0jgc6a0JRqWWvqa6Sk8-9" value="" style="shape=flexArrow;endArrow=classic;html=1;rounded=0;fillColor=#e1d5e7;strokeColor=#9673a6;" parent="1" edge="1">
          <mxGeometry width="50" height="50" relative="1" as="geometry">
            <mxPoint x="160" y="-831.43" as="sourcePoint" />
            <mxPoint x="1890" y="-831.43" as="targetPoint" />
          </mxGeometry>
        </mxCell>
        <mxCell id="c0jgc6a0JRqWWvqa6Sk8-10" value="&lt;font style=&quot;font-size: 14px;&quot;&gt;&lt;b&gt;Proto volaille&lt;/b&gt;&lt;/font&gt;" style="text;html=1;strokeColor=none;fillColor=none;align=center;verticalAlign=middle;whiteSpace=wrap;rounded=0;" parent="1" vertex="1">
          <mxGeometry x="522.88" y="-965" width="60" height="30" as="geometry" />
        </mxCell>
        <mxCell id="c0jgc6a0JRqWWvqa6Sk8-11" value="" style="shape=flexArrow;endArrow=classic;html=1;rounded=0;" parent="1" edge="1">
          <mxGeometry width="50" height="50" relative="1" as="geometry">
            <mxPoint x="156.61" y="799.29" as="sourcePoint" />
            <mxPoint x="1908.6100000000001" y="799.29" as="targetPoint" />
          </mxGeometry>
        </mxCell>
        <mxCell id="c0jgc6a0JRqWWvqa6Sk8-12" value="&lt;div align=&quot;left&quot;&gt;&lt;font size=&quot;1&quot;&gt;&lt;b style=&quot;font-size: 20px;&quot;&gt;Sabiane Collecte&lt;/b&gt;&lt;/font&gt;&lt;br&gt;&lt;/div&gt;" style="text;html=1;strokeColor=none;fillColor=none;align=left;verticalAlign=middle;whiteSpace=wrap;rounded=0;" parent="1" vertex="1">
          <mxGeometry y="780" width="134.2" height="30" as="geometry" />
        </mxCell>
        <mxCell id="c0jgc6a0JRqWWvqa6Sk8-18" value="&lt;font size=&quot;1&quot;&gt;&lt;b style=&quot;font-size: 14px;&quot;&gt;Proto &lt;/b&gt;&lt;/font&gt;&lt;font style=&quot;font-size: 14px;&quot;&gt;&lt;b&gt;TIC&lt;/b&gt;&lt;/font&gt;" style="text;html=1;strokeColor=none;fillColor=none;align=center;verticalAlign=middle;whiteSpace=wrap;rounded=0;" parent="1" vertex="1">
          <mxGeometry x="641.38" y="-941" width="60" height="30" as="geometry" />
        </mxCell>
        <mxCell id="c0jgc6a0JRqWWvqa6Sk8-21" value="" style="shape=flexArrow;endArrow=classic;html=1;rounded=0;" parent="1" edge="1">
          <mxGeometry width="50" height="50" relative="1" as="geometry">
            <mxPoint x="167.18" y="1083.29" as="sourcePoint" />
            <mxPoint x="1907.18" y="1083.29" as="targetPoint" />
          </mxGeometry>
        </mxCell>
        <mxCell id="c0jgc6a0JRqWWvqa6Sk8-22" value="&lt;font style=&quot;font-size: 20px;&quot;&gt;&lt;b&gt;Coleman&lt;/b&gt;&lt;/font&gt;" style="text;html=1;strokeColor=none;fillColor=none;align=center;verticalAlign=middle;whiteSpace=wrap;rounded=0;" parent="1" vertex="1">
          <mxGeometry x="15.8" y="1069" width="60" height="30" as="geometry" />
        </mxCell>
        <mxCell id="c0jgc6a0JRqWWvqa6Sk8-27" value="" style="shape=flexArrow;endArrow=classic;html=1;rounded=0;" parent="1" edge="1">
          <mxGeometry width="50" height="50" relative="1" as="geometry">
            <mxPoint x="160" y="-760" as="sourcePoint" />
            <mxPoint x="1890" y="-760" as="targetPoint" />
          </mxGeometry>
        </mxCell>
        <mxCell id="c0jgc6a0JRqWWvqa6Sk8-28" value="&lt;b&gt;&lt;font style=&quot;font-size: 20px;&quot;&gt;Lunatic&lt;/font&gt;&lt;/b&gt;" style="text;html=1;strokeColor=none;fillColor=none;align=center;verticalAlign=middle;whiteSpace=wrap;rounded=0;" parent="1" vertex="1">
          <mxGeometry x="9.999999999999998" y="-770" width="60" height="30" as="geometry" />
        </mxCell>
        <mxCell id="c0jgc6a0JRqWWvqa6Sk8-36" value="&lt;font style=&quot;font-size: 20px;&quot;&gt;&lt;b&gt;REM/Beatles&lt;/b&gt;&lt;/font&gt;" style="text;html=1;strokeColor=none;fillColor=none;align=center;verticalAlign=middle;whiteSpace=wrap;rounded=0;" parent="1" vertex="1">
          <mxGeometry x="34.379999999999995" y="130" width="60" height="30" as="geometry" />
        </mxCell>
        <mxCell id="c0jgc6a0JRqWWvqa6Sk8-43" value="janvier 2023" style="text;html=1;strokeColor=none;fillColor=none;align=center;verticalAlign=middle;whiteSpace=wrap;rounded=0;" parent="1" vertex="1">
          <mxGeometry x="506.88" y="-830" width="97.5" height="30" as="geometry" />
        </mxCell>
        <mxCell id="c0jgc6a0JRqWWvqa6Sk8-46" value="octobre 2022" style="text;html=1;strokeColor=none;fillColor=none;align=center;verticalAlign=middle;whiteSpace=wrap;rounded=0;" parent="1" vertex="1">
          <mxGeometry x="260.13" y="-830" width="97.5" height="30" as="geometry" />
        </mxCell>
        <mxCell id="c0jgc6a0JRqWWvqa6Sk8-47" value="avril 2023" style="text;html=1;strokeColor=none;fillColor=none;align=center;verticalAlign=middle;whiteSpace=wrap;rounded=0;" parent="1" vertex="1">
          <mxGeometry x="741.38" y="-830" width="97.5" height="30" as="geometry" />
        </mxCell>
        <mxCell id="c0jgc6a0JRqWWvqa6Sk8-48" value="juillet 2024" style="text;html=1;strokeColor=none;fillColor=none;align=center;verticalAlign=middle;whiteSpace=wrap;rounded=0;" parent="1" vertex="1">
          <mxGeometry x="1801.38" y="-830" width="97.5" height="30" as="geometry" />
        </mxCell>
        <mxCell id="c0jgc6a0JRqWWvqa6Sk8-49" value="octobre 2023" style="text;html=1;strokeColor=none;fillColor=none;align=center;verticalAlign=middle;whiteSpace=wrap;rounded=0;" parent="1" vertex="1">
          <mxGeometry x="1151.38" y="-830" width="97.5" height="30" as="geometry" />
        </mxCell>
        <mxCell id="c0jgc6a0JRqWWvqa6Sk8-50" value="janvier 2024" style="text;html=1;strokeColor=none;fillColor=none;align=center;verticalAlign=middle;whiteSpace=wrap;rounded=0;" parent="1" vertex="1">
          <mxGeometry x="1361.38" y="-830" width="97.5" height="30" as="geometry" />
        </mxCell>
        <mxCell id="c0jgc6a0JRqWWvqa6Sk8-51" value="avril 2024" style="text;html=1;strokeColor=none;fillColor=none;align=center;verticalAlign=middle;whiteSpace=wrap;rounded=0;" parent="1" vertex="1">
          <mxGeometry x="1571.38" y="-830" width="97.5" height="30" as="geometry" />
        </mxCell>
        <mxCell id="c0jgc6a0JRqWWvqa6Sk8-52" value="&lt;font style=&quot;font-size: 14px;&quot;&gt;&lt;b&gt;Proto SRCV&lt;/b&gt;&lt;/font&gt;" style="text;html=1;strokeColor=none;fillColor=none;align=center;verticalAlign=middle;whiteSpace=wrap;rounded=0;" parent="1" vertex="1">
          <mxGeometry x="754.38" y="-940" width="60" height="30" as="geometry" />
        </mxCell>
        <mxCell id="c0jgc6a0JRqWWvqa6Sk8-53" value="&lt;font style=&quot;font-size: 14px;&quot;&gt;&lt;b&gt;FPE&lt;/b&gt;&lt;/font&gt;" style="text;html=1;strokeColor=none;fillColor=none;align=center;verticalAlign=middle;whiteSpace=wrap;rounded=0;" parent="1" vertex="1">
          <mxGeometry x="824.38" y="-940" width="60" height="30" as="geometry" />
        </mxCell>
        <mxCell id="c0jgc6a0JRqWWvqa6Sk8-54" value="&lt;font style=&quot;font-size: 14px;&quot;&gt;&lt;b&gt;Proto Camme&lt;/b&gt;&lt;/font&gt;" style="text;html=1;strokeColor=none;fillColor=none;align=center;verticalAlign=middle;whiteSpace=wrap;rounded=0;" parent="1" vertex="1">
          <mxGeometry x="1104.38" y="-940" width="60" height="30" as="geometry" />
        </mxCell>
        <mxCell id="c0jgc6a0JRqWWvqa6Sk8-55" value="&lt;font style=&quot;font-size: 14px;&quot;&gt;&lt;b&gt;Camme&lt;/b&gt;&lt;/font&gt;" style="text;html=1;strokeColor=none;fillColor=none;align=center;verticalAlign=middle;whiteSpace=wrap;rounded=0;" parent="1" vertex="1">
          <mxGeometry x="1294.38" y="-940" width="60" height="30" as="geometry" />
        </mxCell>
        <mxCell id="c0jgc6a0JRqWWvqa6Sk8-56" value="&lt;font size=&quot;1&quot;&gt;&lt;b style=&quot;font-size: 15px;&quot;&gt;V1&lt;/b&gt;&lt;/font&gt;" style="rhombus;whiteSpace=wrap;html=1;fillColor=#d5e8d4;strokeColor=#82b366;" parent="1" vertex="1">
          <mxGeometry x="1027" y="-50" width="80" height="80" as="geometry" />
        </mxCell>
        <mxCell id="c0jgc6a0JRqWWvqa6Sk8-57" value="&lt;font style=&quot;font-size: 14px;&quot;&gt;&lt;b&gt;Test EDT&lt;br&gt;&lt;/b&gt;&lt;/font&gt;" style="text;html=1;strokeColor=none;fillColor=none;align=center;verticalAlign=middle;whiteSpace=wrap;rounded=0;" parent="1" vertex="1">
          <mxGeometry x="1669.38" y="-955" width="60" height="30" as="geometry" />
        </mxCell>
        <mxCell id="c0jgc6a0JRqWWvqa6Sk8-60" value="&lt;font style=&quot;font-size: 14px;&quot;&gt;&lt;b&gt;ENL&lt;/b&gt;&lt;/font&gt; (tél web)" style="text;html=1;strokeColor=none;fillColor=none;align=center;verticalAlign=middle;whiteSpace=wrap;rounded=0;" parent="1" vertex="1">
          <mxGeometry x="1104.38" y="-900" width="60" height="30" as="geometry" />
        </mxCell>
        <mxCell id="c0jgc6a0JRqWWvqa6Sk8-61" value="&lt;font style=&quot;font-size: 14px;&quot;&gt;&lt;b&gt;Test fàf ENL&lt;/b&gt;&lt;/font&gt;" style="text;html=1;align=center;verticalAlign=middle;whiteSpace=wrap;rounded=0;" parent="1" vertex="1">
          <mxGeometry x="339.38" y="-940" width="60" height="30" as="geometry" />
        </mxCell>
        <mxCell id="c0jgc6a0JRqWWvqa6Sk8-62" value="&lt;font style=&quot;font-size: 15px;&quot;&gt;&lt;b&gt;V2&lt;/b&gt;&lt;/font&gt;" style="rhombus;whiteSpace=wrap;html=1;fillColor=#ffe6cc;strokeColor=#d79b00;" parent="1" vertex="1">
          <mxGeometry x="1597" y="-50" width="80" height="80" as="geometry" />
        </mxCell>
        <mxCell id="c0jgc6a0JRqWWvqa6Sk8-63" value="- protocole web sans REM&lt;br&gt;- ihm de déclenchement manuel de protocole" style="text;html=1;strokeColor=none;fillColor=none;align=center;verticalAlign=middle;whiteSpace=wrap;rounded=0;fontSize=14;" parent="1" vertex="1">
          <mxGeometry x="243.5" y="10" width="200" height="30" as="geometry" />
        </mxCell>
        <mxCell id="c0jgc6a0JRqWWvqa6Sk8-64" value="- protocole web avec REM&lt;br&gt;- envoi de courriers&lt;br&gt;- protocole face à face avec REM avec TCM sans éclatement de logement&lt;br&gt;- enrichissement REM en amont" style="text;html=1;strokeColor=none;fillColor=none;align=center;verticalAlign=middle;whiteSpace=wrap;rounded=0;fontSize=14;" parent="1" vertex="1">
          <mxGeometry x="575" y="10" width="310" height="30" as="geometry" />
        </mxCell>
        <mxCell id="c0jgc6a0JRqWWvqa6Sk8-65" value="- protocole tél panel automatisé avec retour de collecte dans Crabe&lt;br&gt;- ihm de suivi de protocole&lt;br&gt;- appel codification automatique et mise à disposition et récupération des données des postes de reprise (codification)" style="text;html=1;strokeColor=none;fillColor=none;align=center;verticalAlign=middle;whiteSpace=wrap;rounded=0;fontSize=14;" parent="1" vertex="1">
          <mxGeometry x="1051" y="-10" width="292.5" height="30" as="geometry" />
        </mxCell>
        <mxCell id="c0jgc6a0JRqWWvqa6Sk8-66" value="- modélisation et prise en compte de processus complexe avec données antérieures&lt;br&gt;- ihm de conception de protocole&lt;br&gt;- alimentation Genesis&lt;br&gt;- orchestration des éclatements" style="text;html=1;strokeColor=none;fillColor=none;align=center;verticalAlign=middle;whiteSpace=wrap;rounded=0;fontSize=14;" parent="1" vertex="1">
          <mxGeometry x="1647" y="5" width="250" height="30" as="geometry" />
        </mxCell>
        <mxCell id="c0jgc6a0JRqWWvqa6Sk8-73" value="&lt;strike&gt;- prise en compte de processus complexe avec données antérieures&lt;/strike&gt;" style="text;html=1;strokeColor=#b85450;fillColor=#f8cecc;align=center;verticalAlign=middle;whiteSpace=wrap;rounded=0;fontSize=15;" parent="1" vertex="1">
          <mxGeometry x="995.75" y="50" width="280" height="30" as="geometry" />
        </mxCell>
        <mxCell id="c0jgc6a0JRqWWvqa6Sk8-80" style="edgeStyle=orthogonalEdgeStyle;rounded=0;orthogonalLoop=1;jettySize=auto;html=1;exitX=0.5;exitY=1;exitDx=0;exitDy=0;fontSize=15;" parent="1" source="c0jgc6a0JRqWWvqa6Sk8-66" target="c0jgc6a0JRqWWvqa6Sk8-66" edge="1">
          <mxGeometry relative="1" as="geometry" />
        </mxCell>
        <mxCell id="FTLLSDSXX8i168MmgbQK-1" value="&lt;b&gt;&lt;font style=&quot;font-size: 14px;&quot;&gt;Test SDT ?&lt;/font&gt;&lt;/b&gt;" style="ellipse;whiteSpace=wrap;html=1;aspect=fixed;fontSize=15;" parent="1" vertex="1">
          <mxGeometry x="1099.38" y="-1010" width="70" height="70" as="geometry" />
        </mxCell>
        <mxCell id="FTLLSDSXX8i168MmgbQK-2" value="" style="ellipse;whiteSpace=wrap;html=1;aspect=fixed;fontSize=15;" parent="1" vertex="1">
          <mxGeometry x="1216.38" y="-961" width="70" height="70" as="geometry" />
        </mxCell>
        <mxCell id="FTLLSDSXX8i168MmgbQK-3" value="&lt;b&gt;&lt;font style=&quot;font-size: 14px;&quot;&gt;Test&lt;br&gt;BdF&lt;/font&gt;&lt;/b&gt;" style="text;html=1;strokeColor=none;fillColor=none;align=center;verticalAlign=middle;whiteSpace=wrap;rounded=0;" parent="1" vertex="1">
          <mxGeometry x="1221.38" y="-939" width="60" height="30" as="geometry" />
        </mxCell>
        <mxCell id="FTLLSDSXX8i168MmgbQK-4" value="" style="ellipse;whiteSpace=wrap;html=1;aspect=fixed;fontSize=15;" parent="1" vertex="1">
          <mxGeometry x="1396.38" y="-960" width="70" height="70" as="geometry" />
        </mxCell>
        <mxCell id="FTLLSDSXX8i168MmgbQK-5" value="&lt;b&gt;&lt;font style=&quot;font-size: 14px;&quot;&gt;Test Famille&lt;/font&gt;&lt;/b&gt;" style="text;html=1;strokeColor=none;fillColor=none;align=center;verticalAlign=middle;whiteSpace=wrap;rounded=0;" parent="1" vertex="1">
          <mxGeometry x="1400.38" y="-942" width="60" height="30" as="geometry" />
        </mxCell>
        <mxCell id="FTLLSDSXX8i168MmgbQK-7" value="" style="ellipse;whiteSpace=wrap;html=1;aspect=fixed;fontSize=15;" parent="1" vertex="1">
          <mxGeometry x="1470.38" y="-962" width="70" height="70" as="geometry" />
        </mxCell>
        <mxCell id="FTLLSDSXX8i168MmgbQK-8" value="&lt;b&gt;&lt;font style=&quot;font-size: 14px;&quot;&gt;Test SD&lt;br&gt;&lt;/font&gt;&lt;/b&gt;" style="text;html=1;strokeColor=none;fillColor=none;align=center;verticalAlign=middle;whiteSpace=wrap;rounded=0;" parent="1" vertex="1">
          <mxGeometry x="1474.38" y="-944" width="60" height="30" as="geometry" />
        </mxCell>
        <mxCell id="FTLLSDSXX8i168MmgbQK-9" value="" style="ellipse;whiteSpace=wrap;html=1;aspect=fixed;fontSize=15;" parent="1" vertex="1">
          <mxGeometry x="1545.38" y="-962" width="70" height="70" as="geometry" />
        </mxCell>
        <mxCell id="FTLLSDSXX8i168MmgbQK-10" value="&lt;b&gt;&lt;font style=&quot;font-size: 14px;&quot;&gt;Test CDT-RPS ?&lt;br&gt;&lt;/font&gt;&lt;/b&gt;" style="text;html=1;strokeColor=none;fillColor=none;align=center;verticalAlign=middle;whiteSpace=wrap;rounded=0;" parent="1" vertex="1">
          <mxGeometry x="1549.38" y="-944" width="60" height="30" as="geometry" />
        </mxCell>
        <mxCell id="FTLLSDSXX8i168MmgbQK-11" value="" style="ellipse;whiteSpace=wrap;html=1;aspect=fixed;fontSize=15;fillColor=#ffe6cc;strokeColor=#d79b00;" parent="1" vertex="1">
          <mxGeometry x="1662.38" y="-1028" width="70" height="70" as="geometry" />
        </mxCell>
        <mxCell id="FTLLSDSXX8i168MmgbQK-12" value="&lt;font style=&quot;font-size: 14px;&quot;&gt;&lt;b&gt;Proto SRCV&lt;br&gt;&lt;/b&gt;&lt;/font&gt;" style="text;html=1;strokeColor=none;fillColor=none;align=center;verticalAlign=middle;whiteSpace=wrap;rounded=0;" parent="1" vertex="1">
          <mxGeometry x="1667.38" y="-1013" width="60" height="30" as="geometry" />
        </mxCell>
        <mxCell id="FTLLSDSXX8i168MmgbQK-13" value="&lt;font style=&quot;font-size: 14px;&quot;&gt;&lt;b&gt;Test BdF&lt;br&gt;&lt;/b&gt;&lt;/font&gt;" style="text;html=1;strokeColor=none;fillColor=none;align=center;verticalAlign=middle;whiteSpace=wrap;rounded=0;" parent="1" vertex="1">
          <mxGeometry x="1669.38" y="-895" width="60" height="30" as="geometry" />
        </mxCell>
        <mxCell id="FTLLSDSXX8i168MmgbQK-14" value="juillet 2023" style="text;html=1;strokeColor=none;fillColor=none;align=center;verticalAlign=middle;whiteSpace=wrap;rounded=0;" parent="1" vertex="1">
          <mxGeometry x="971.38" y="-830" width="97.5" height="30" as="geometry" />
        </mxCell>
        <mxCell id="FTLLSDSXX8i168MmgbQK-16" value="" style="ellipse;whiteSpace=wrap;html=1;aspect=fixed;fontSize=15;" parent="1" vertex="1">
          <mxGeometry x="1799.38" y="-984" width="70" height="70" as="geometry" />
        </mxCell>
        <mxCell id="FTLLSDSXX8i168MmgbQK-17" value="&lt;b&gt;&lt;font style=&quot;font-size: 14px;&quot;&gt;CDT-RPS&lt;br&gt;&lt;/font&gt;&lt;/b&gt;" style="text;html=1;strokeColor=none;fillColor=none;align=center;verticalAlign=middle;whiteSpace=wrap;rounded=0;" parent="1" vertex="1">
          <mxGeometry x="1803.38" y="-966" width="60" height="30" as="geometry" />
        </mxCell>
        <mxCell id="FTLLSDSXX8i168MmgbQK-19" value="&lt;b&gt;&lt;font style=&quot;font-size: 14px;&quot;&gt;Justiciable&lt;/font&gt;&lt;/b&gt;" style="text;html=1;strokeColor=none;fillColor=none;align=center;verticalAlign=middle;whiteSpace=wrap;rounded=0;" parent="1" vertex="1">
          <mxGeometry x="1802.38" y="-920" width="60" height="30" as="geometry" />
        </mxCell>
        <mxCell id="FTLLSDSXX8i168MmgbQK-20" value="" style="rhombus;whiteSpace=wrap;html=1;fillColor=#d5e8d4;strokeColor=#82b366;" parent="1" vertex="1">
          <mxGeometry x="558.5" y="150" width="80" height="80" as="geometry" />
        </mxCell>
        <mxCell id="FTLLSDSXX8i168MmgbQK-21" value="&lt;font style=&quot;font-size: 15px;&quot;&gt;&lt;b&gt;V0.9&lt;/b&gt;&lt;/font&gt;" style="text;html=1;strokeColor=none;fillColor=none;align=center;verticalAlign=middle;whiteSpace=wrap;rounded=0;" parent="1" vertex="1">
          <mxGeometry x="568.5" y="175" width="60" height="30" as="geometry" />
        </mxCell>
        <mxCell id="FTLLSDSXX8i168MmgbQK-22" value="&lt;div align=&quot;center&quot;&gt;- chargement de données depuis Nautile ou sources externes&lt;br&gt;- identifiant de l&#39;UE&lt;br&gt;- enrichissement en amont&lt;br&gt;- selection (formule) et export&lt;/div&gt;" style="text;html=1;strokeColor=none;fillColor=none;align=center;verticalAlign=middle;whiteSpace=wrap;rounded=0;fontSize=14;" parent="1" vertex="1">
          <mxGeometry x="634.38" y="190" width="310" height="30" as="geometry" />
        </mxCell>
        <mxCell id="FTLLSDSXX8i168MmgbQK-23" value="&lt;font size=&quot;1&quot;&gt;&lt;b style=&quot;font-size: 15px;&quot;&gt;V1&lt;/b&gt;&lt;/font&gt;" style="rhombus;whiteSpace=wrap;html=1;fillColor=#d5e8d4;strokeColor=#82b366;" parent="1" vertex="1">
          <mxGeometry x="1027" y="150" width="80" height="80" as="geometry" />
        </mxCell>
        <mxCell id="FTLLSDSXX8i168MmgbQK-26" value="" style="shape=flexArrow;endArrow=classic;html=1;rounded=0;" parent="1" edge="1">
          <mxGeometry width="50" height="50" relative="1" as="geometry">
            <mxPoint x="167.18" y="1353.29" as="sourcePoint" />
            <mxPoint x="1907.18" y="1353.29" as="targetPoint" />
          </mxGeometry>
        </mxCell>
        <mxCell id="FTLLSDSXX8i168MmgbQK-27" value="&lt;b&gt;&lt;font style=&quot;font-size: 20px;&quot;&gt;Genesis&lt;/font&gt;&lt;/b&gt;" style="text;html=1;strokeColor=none;fillColor=none;align=center;verticalAlign=middle;whiteSpace=wrap;rounded=0;" parent="1" vertex="1">
          <mxGeometry x="15.3" y="1339" width="60" height="30" as="geometry" />
        </mxCell>
        <mxCell id="FTLLSDSXX8i168MmgbQK-28" value="" style="shape=flexArrow;endArrow=classic;html=1;rounded=0;" parent="1" edge="1">
          <mxGeometry width="50" height="50" relative="1" as="geometry">
            <mxPoint x="165.8" y="1708" as="sourcePoint" />
            <mxPoint x="1905.8" y="1708" as="targetPoint" />
          </mxGeometry>
        </mxCell>
        <mxCell id="FTLLSDSXX8i168MmgbQK-29" value="&lt;font style=&quot;font-size: 20px;&quot;&gt;&lt;b&gt;Kraftwerk&lt;/b&gt;&lt;/font&gt;" style="text;html=1;strokeColor=none;fillColor=none;align=center;verticalAlign=middle;whiteSpace=wrap;rounded=0;" parent="1" vertex="1">
          <mxGeometry x="20.18" y="1690" width="60" height="30" as="geometry" />
        </mxCell>
        <mxCell id="FTLLSDSXX8i168MmgbQK-30" value="&lt;b&gt;&lt;font style=&quot;font-size: 20px;&quot;&gt;Opale&lt;/font&gt;&lt;/b&gt;" style="text;html=1;strokeColor=none;fillColor=none;align=center;verticalAlign=middle;whiteSpace=wrap;rounded=0;" parent="1" vertex="1">
          <mxGeometry x="0.8100000000000023" y="260" width="60" height="30" as="geometry" />
        </mxCell>
        <mxCell id="FTLLSDSXX8i168MmgbQK-31" value="- protocole tél panel automatisé avec retour de collecte&lt;br&gt;- alimentation automatisée Opale depuis REM&lt;br&gt;&lt;div&gt;- interface SI entreprise ?&lt;/div&gt;" style="text;html=1;strokeColor=none;fillColor=none;align=center;verticalAlign=middle;whiteSpace=wrap;rounded=0;fontSize=14;" parent="1" vertex="1">
          <mxGeometry x="1085.75" y="190" width="292.5" height="30" as="geometry" />
        </mxCell>
        <mxCell id="FTLLSDSXX8i168MmgbQK-32" value="&lt;font style=&quot;font-size: 14px;&quot;&gt;&lt;b&gt;ENL&lt;/b&gt;&lt;/font&gt; (faf)" style="text;html=1;strokeColor=none;fillColor=none;align=center;verticalAlign=middle;whiteSpace=wrap;rounded=0;" parent="1" vertex="1">
          <mxGeometry x="1498.38" y="-895" width="60" height="30" as="geometry" />
        </mxCell>
        <mxCell id="FTLLSDSXX8i168MmgbQK-35" value="&lt;font size=&quot;1&quot;&gt;&lt;b style=&quot;font-size: 15px;&quot;&gt;V1.8&lt;/b&gt;&lt;/font&gt;" style="rhombus;whiteSpace=wrap;html=1;fillColor=#d5e8d4;strokeColor=#82b366;" parent="1" vertex="1">
          <mxGeometry x="1424.5" y="150" width="80" height="80" as="geometry" />
        </mxCell>
        <mxCell id="FTLLSDSXX8i168MmgbQK-36" value="- protocole faf&lt;br&gt;- alimentation éditique depuis REM&lt;br&gt;- alimentation CAPI&lt;br&gt;- décommissionement Crabe ?" style="text;html=1;strokeColor=none;fillColor=none;align=center;verticalAlign=middle;whiteSpace=wrap;rounded=0;fontSize=14;" parent="1" vertex="1">
          <mxGeometry x="1448.88" y="190" width="170" height="30" as="geometry" />
        </mxCell>
        <mxCell id="FTLLSDSXX8i168MmgbQK-38" value="&lt;font size=&quot;1&quot;&gt;&lt;b style=&quot;font-size: 15px;&quot;&gt;V2&lt;/b&gt;&lt;/font&gt;" style="rhombus;whiteSpace=wrap;html=1;fillColor=#ffe6cc;strokeColor=#d79b00;" parent="1" vertex="1">
          <mxGeometry x="1597" y="160" width="80" height="80" as="geometry" />
        </mxCell>
        <mxCell id="FTLLSDSXX8i168MmgbQK-39" value="- modèle de données avec TCM et éclatement de ménage&lt;br&gt;- gestion des éclatements&lt;br&gt;- enrichissement ?" style="text;html=1;strokeColor=none;fillColor=none;align=center;verticalAlign=middle;whiteSpace=wrap;rounded=0;fontSize=14;" parent="1" vertex="1">
          <mxGeometry x="1677" y="190" width="203" height="30" as="geometry" />
        </mxCell>
        <mxCell id="FTLLSDSXX8i168MmgbQK-45" value="&lt;b&gt;&lt;font style=&quot;font-size: 15px;&quot;&gt;&lt;span style=&quot;&quot;&gt;V1&lt;/span&gt;.5&lt;/font&gt;&lt;/b&gt;" style="rhombus;whiteSpace=wrap;html=1;fillColor=#d5e8d4;strokeColor=#82b366;" parent="1" vertex="1">
          <mxGeometry x="1313" y="-50" width="80" height="80" as="geometry" />
        </mxCell>
        <mxCell id="FTLLSDSXX8i168MmgbQK-46" value="- interséquence simple sans Crabe vers questionnaire autoadministré ou non&lt;br&gt;- mise en demeure/constat de non réponse ?" style="text;html=1;strokeColor=none;fillColor=none;align=center;verticalAlign=middle;whiteSpace=wrap;rounded=0;fontSize=14;" parent="1" vertex="1">
          <mxGeometry x="1356.62" y="5" width="191.38" height="30" as="geometry" />
        </mxCell>
        <mxCell id="ddA6PycPh_wfGD-rprwo-1" value="&lt;font style=&quot;font-size: 15px;&quot;&gt;&lt;b&gt;Vx.y&lt;/b&gt;&lt;/font&gt;" style="rhombus;whiteSpace=wrap;html=1;fillColor=#ffe6cc;strokeColor=#d79b00;" parent="1" vertex="1">
          <mxGeometry x="161.38" y="-760" width="80" height="80" as="geometry" />
        </mxCell>
        <mxCell id="ddA6PycPh_wfGD-rprwo-3" value="- refonte technique Lunatic (v2)&lt;br&gt;- support des questionnaires face à face&lt;br&gt;- capture paradonnées enquêteurs ?" style="text;html=1;strokeColor=none;fillColor=none;align=center;verticalAlign=middle;whiteSpace=wrap;rounded=0;fontSize=14;" parent="1" vertex="1">
          <mxGeometry x="181.38" y="-720" width="310" height="30" as="geometry" />
        </mxCell>
        <mxCell id="ddA6PycPh_wfGD-rprwo-4" value="&lt;font style=&quot;font-size: 15px;&quot;&gt;&lt;b&gt;Vx.y+1&lt;/b&gt;&lt;/font&gt;" style="rhombus;whiteSpace=wrap;html=1;fillColor=#ffe6cc;strokeColor=#d79b00;" parent="1" vertex="1">
          <mxGeometry x="451.38" y="-760" width="80" height="80" as="geometry" />
        </mxCell>
        <mxCell id="ddA6PycPh_wfGD-rprwo-5" value="- composition de questionnaires (TCM)&lt;br&gt;- liens 2 à 2&lt;br&gt;- intégration Lunatic V2 dans les orchestrateurs (StromaeV2, &lt;span style=&quot;background-color: rgb(255, 230, 204);&quot;&gt;Queen&lt;/span&gt;)&lt;br&gt;- Kish&lt;br&gt;&lt;span style=&quot;background-color: rgb(255, 230, 204);&quot;&gt;- premiers liens (liste de codes) avec RMéS&lt;/span&gt;" style="text;html=1;strokeColor=none;fillColor=none;align=center;verticalAlign=middle;whiteSpace=wrap;rounded=0;fontSize=14;" parent="1" vertex="1">
          <mxGeometry x="509.88" y="-720" width="310" height="30" as="geometry" />
        </mxCell>
        <mxCell id="ddA6PycPh_wfGD-rprwo-6" value="&lt;font style=&quot;font-size: 15px;&quot;&gt;&lt;b&gt;Vx.y+2&lt;/b&gt;&lt;/font&gt;" style="rhombus;whiteSpace=wrap;html=1;fillColor=#ffe6cc;strokeColor=#d79b00;" parent="1" vertex="1">
          <mxGeometry x="891.38" y="-760" width="80" height="80" as="geometry" />
        </mxCell>
        <mxCell id="ddA6PycPh_wfGD-rprwo-7" value="- composition de questionnaires (y compris EMB ?)&lt;br&gt;- consolidation globale (tests de non régression)&lt;br&gt;&lt;span style=&quot;background-color: rgb(255, 153, 153);&quot;&gt;- composant type carnet&lt;/span&gt;&lt;br&gt;&lt;span style=&quot;background-color: rgb(255, 206, 159);&quot;&gt;&lt;/span&gt;" style="text;html=1;strokeColor=none;fillColor=none;align=center;verticalAlign=middle;whiteSpace=wrap;rounded=0;fontSize=14;" parent="1" vertex="1">
          <mxGeometry x="821.38" y="-690" width="250" height="30" as="geometry" />
        </mxCell>
        <mxCell id="ddA6PycPh_wfGD-rprwo-8" value="&lt;b&gt;Vx.y+4&lt;/b&gt;" style="rhombus;whiteSpace=wrap;html=1;fillColor=#ffe6cc;strokeColor=#d79b00;" parent="1" vertex="1">
          <mxGeometry x="1303.38" y="-760" width="80" height="80" as="geometry" />
        </mxCell>
        <mxCell id="ddA6PycPh_wfGD-rprwo-9" value="- boucle de boucle" style="text;html=1;strokeColor=none;fillColor=none;align=center;verticalAlign=middle;whiteSpace=wrap;rounded=0;fontSize=14;" parent="1" vertex="1">
          <mxGeometry x="1312.38" y="-720" width="150" height="30" as="geometry" />
        </mxCell>
        <mxCell id="cksNnemaycyc-sAIgtyD-1" value="&lt;font style=&quot;font-size: 15px;&quot;&gt;&lt;b&gt;Vx.y+3&lt;/b&gt;&lt;/font&gt;" style="rhombus;whiteSpace=wrap;html=1;fillColor=#ffe6cc;strokeColor=#d79b00;" parent="1" vertex="1">
          <mxGeometry x="1071.38" y="-760" width="80" height="80" as="geometry" />
        </mxCell>
        <mxCell id="cksNnemaycyc-sAIgtyD-2" value="- refonte UI&lt;br&gt;- rond point&lt;br&gt;&lt;span style=&quot;background-color: rgb(255, 206, 159);&quot;&gt;&lt;/span&gt;" style="text;html=1;strokeColor=none;fillColor=none;align=center;verticalAlign=middle;whiteSpace=wrap;rounded=0;fontSize=14;" parent="1" vertex="1">
          <mxGeometry x="995.75" y="-90" width="121.25" height="30" as="geometry" />
        </mxCell>
        <mxCell id="vozaQE-ynMEkPl2pL4Hx-1" value="" style="rhombus;whiteSpace=wrap;html=1;fillColor=#d5e8d4;strokeColor=#82b366;" parent="1" vertex="1">
          <mxGeometry x="310.8" y="804" width="80" height="80" as="geometry" />
        </mxCell>
        <mxCell id="vozaQE-ynMEkPl2pL4Hx-2" value="&lt;font style=&quot;font-size: 14px;&quot;&gt;&lt;b&gt;V2.0&lt;/b&gt;&lt;/font&gt;" style="text;html=1;strokeColor=none;fillColor=none;align=center;verticalAlign=middle;whiteSpace=wrap;rounded=0;" parent="1" vertex="1">
          <mxGeometry x="320.8" y="829" width="60" height="30" as="geometry" />
        </mxCell>
        <mxCell id="vozaQE-ynMEkPl2pL4Hx-3" value="- Protocole fàf (type logement) sans Crabe&lt;br&gt;&lt;div&gt;- Ajout repérage&lt;/div&gt;&lt;div&gt;- Améliorations ergo UX Design (début)&lt;br&gt;&lt;/div&gt;" style="text;html=1;strokeColor=none;fillColor=none;align=center;verticalAlign=middle;whiteSpace=wrap;rounded=0;fontSize=14;" parent="1" vertex="1">
          <mxGeometry x="194.3" y="884" width="310" height="30" as="geometry" />
        </mxCell>
        <mxCell id="vozaQE-ynMEkPl2pL4Hx-4" value="" style="rhombus;whiteSpace=wrap;html=1;fillColor=#d5e8d4;strokeColor=#82b366;" parent="1" vertex="1">
          <mxGeometry x="660.8" y="804" width="80" height="80" as="geometry" />
        </mxCell>
        <mxCell id="vozaQE-ynMEkPl2pL4Hx-5" value="&lt;font style=&quot;font-size: 14px;&quot;&gt;&lt;b&gt;V2.1&lt;/b&gt;&lt;/font&gt;" style="text;html=1;strokeColor=none;fillColor=none;align=center;verticalAlign=middle;whiteSpace=wrap;rounded=0;" parent="1" vertex="1">
          <mxGeometry x="672.8" y="828" width="60" height="30" as="geometry" />
        </mxCell>
        <mxCell id="vozaQE-ynMEkPl2pL4Hx-6" value="&lt;br&gt;&lt;div&gt;- Protocole tél (type ménage) avec Crabe&lt;br&gt;&lt;/div&gt;&lt;div&gt;- Améliorations ergo UX Design (suite)&lt;br&gt;&lt;/div&gt;" style="text;html=1;strokeColor=none;fillColor=none;align=center;verticalAlign=middle;whiteSpace=wrap;rounded=0;fontSize=14;" parent="1" vertex="1">
          <mxGeometry x="465.8" y="853" width="250" height="30" as="geometry" />
        </mxCell>
        <mxCell id="vozaQE-ynMEkPl2pL4Hx-8" value="&lt;font style=&quot;font-size: 14px;&quot;&gt;&lt;b&gt;V3.0&lt;br&gt;R&lt;br&gt;&lt;/b&gt;&lt;/font&gt;" style="text;html=1;strokeColor=none;fillColor=none;align=center;verticalAlign=middle;whiteSpace=wrap;rounded=0;" parent="1" vertex="1">
          <mxGeometry x="754.3" y="829" width="60" height="30" as="geometry" />
        </mxCell>
        <mxCell id="vozaQE-ynMEkPl2pL4Hx-9" value="&lt;br&gt;&lt;div&gt;- Protocole fàf (type logement) avec Crabe&lt;br&gt;&lt;/div&gt;&lt;div&gt;- Modularité questionnaire&lt;/div&gt;&lt;div&gt;- Améliorations ergo UX Design (fin)&lt;/div&gt;&lt;div&gt;- Aides en ligne&lt;br&gt;&lt;/div&gt;&lt;div&gt;&lt;br&gt;&lt;/div&gt;" style="text;html=1;strokeColor=none;fillColor=none;align=center;verticalAlign=middle;whiteSpace=wrap;rounded=0;fontSize=14;" parent="1" vertex="1">
          <mxGeometry x="695.8" y="893" width="270" height="30" as="geometry" />
        </mxCell>
        <mxCell id="vozaQE-ynMEkPl2pL4Hx-10" value="" style="ellipse;whiteSpace=wrap;html=1;aspect=fixed;fontSize=15;" parent="1" vertex="1">
          <mxGeometry x="1944.38" y="-958" width="70" height="70" as="geometry" />
        </mxCell>
        <mxCell id="vozaQE-ynMEkPl2pL4Hx-11" value="&lt;b&gt;&lt;font style=&quot;font-size: 15px;&quot;&gt;Test Santé&lt;/font&gt;&lt;font style=&quot;font-size: 14px;&quot;&gt; ?&lt;br&gt;&lt;/font&gt;&lt;/b&gt;" style="text;html=1;strokeColor=none;fillColor=none;align=center;verticalAlign=middle;whiteSpace=wrap;rounded=0;" parent="1" vertex="1">
          <mxGeometry x="1949.38" y="-939" width="60" height="30" as="geometry" />
        </mxCell>
        <mxCell id="vozaQE-ynMEkPl2pL4Hx-12" value="" style="rhombus;whiteSpace=wrap;html=1;fillColor=#d5e8d4;strokeColor=#82b366;" parent="1" vertex="1">
          <mxGeometry x="1645.8" y="804" width="80" height="80" as="geometry" />
        </mxCell>
        <mxCell id="vozaQE-ynMEkPl2pL4Hx-14" value="" style="rhombus;whiteSpace=wrap;html=1;fillColor=#d5e8d4;strokeColor=#82b366;" parent="1" vertex="1">
          <mxGeometry x="1080.8" y="803" width="80" height="80" as="geometry" />
        </mxCell>
        <mxCell id="vozaQE-ynMEkPl2pL4Hx-15" value="&lt;font style=&quot;font-size: 14px;&quot;&gt;&lt;b&gt;V3.0&lt;br&gt;&lt;/b&gt;&lt;/font&gt;" style="text;html=1;strokeColor=none;fillColor=none;align=center;verticalAlign=middle;whiteSpace=wrap;rounded=0;" parent="1" vertex="1">
          <mxGeometry x="1090.8" y="828" width="60" height="30" as="geometry" />
        </mxCell>
        <mxCell id="vozaQE-ynMEkPl2pL4Hx-16" value="" style="rhombus;whiteSpace=wrap;html=1;fillColor=#d5e8d4;strokeColor=#82b366;" parent="1" vertex="1">
          <mxGeometry x="1468.8" y="804" width="80" height="80" as="geometry" />
        </mxCell>
        <mxCell id="vozaQE-ynMEkPl2pL4Hx-17" value="&lt;br&gt;&lt;div&gt;&lt;br&gt;&lt;/div&gt;&lt;div&gt;- Fonctionnel &quot;Courriers&quot; (uniquement métropole ?)&lt;/div&gt;&lt;div&gt;- Fonctionnel &quot;Suivi pour l&#39;enquêteur&quot; (périmètre à définir)&lt;br&gt;&lt;/div&gt;&lt;div&gt;&lt;br&gt;&lt;/div&gt;" style="text;html=1;strokeColor=none;fillColor=none;align=center;verticalAlign=middle;whiteSpace=wrap;rounded=0;fontSize=14;" parent="1" vertex="1">
          <mxGeometry x="1267.8" y="876" width="309" height="30" as="geometry" />
        </mxCell>
        <mxCell id="vozaQE-ynMEkPl2pL4Hx-18" value="- Protocole fàf (type individu)&lt;div&gt;- Éclatement ménage / déménagement&lt;br&gt;&lt;/div&gt;&lt;div&gt;&lt;br&gt;&lt;/div&gt;" style="text;html=1;strokeColor=none;fillColor=none;align=center;verticalAlign=middle;whiteSpace=wrap;rounded=0;fontSize=14;" parent="1" vertex="1">
          <mxGeometry x="1574.8" y="894" width="270" height="30" as="geometry" />
        </mxCell>
        <mxCell id="vozaQE-ynMEkPl2pL4Hx-19" value="&lt;font style=&quot;font-size: 14px;&quot;&gt;&lt;b&gt;V4.0&lt;br&gt;&lt;/b&gt;&lt;/font&gt;" style="text;html=1;strokeColor=none;fillColor=none;align=center;verticalAlign=middle;whiteSpace=wrap;rounded=0;" parent="1" vertex="1">
          <mxGeometry x="1479.8" y="829" width="60" height="30" as="geometry" />
        </mxCell>
        <mxCell id="vozaQE-ynMEkPl2pL4Hx-20" value="&lt;font style=&quot;font-size: 14px;&quot;&gt;&lt;b&gt;V4.1&lt;br&gt;&lt;/b&gt;&lt;/font&gt;" style="text;html=1;strokeColor=none;fillColor=none;align=center;verticalAlign=middle;whiteSpace=wrap;rounded=0;" parent="1" vertex="1">
          <mxGeometry x="1655.8" y="829" width="60" height="30" as="geometry" />
        </mxCell>
        <mxCell id="vozaQE-ynMEkPl2pL4Hx-22" value="" style="rhombus;whiteSpace=wrap;html=1;fillColor=#d5e8d4;strokeColor=#82b366;" parent="1" vertex="1">
          <mxGeometry x="1975.8" y="810" width="80" height="80" as="geometry" />
        </mxCell>
        <mxCell id="vozaQE-ynMEkPl2pL4Hx-23" value="&lt;b&gt;&lt;font style=&quot;font-size: 14px;&quot;&gt;V 999&lt;br&gt;&lt;/font&gt;&lt;/b&gt;" style="text;html=1;strokeColor=none;fillColor=none;align=center;verticalAlign=middle;whiteSpace=wrap;rounded=0;" parent="1" vertex="1">
          <mxGeometry x="1987.8" y="834" width="60" height="30" as="geometry" />
        </mxCell>
        <mxCell id="pcrgv22G-7Bk5gdFUB20-2" value="&lt;font style=&quot;font-size: 19px;&quot;&gt;&lt;b&gt;Meshuggah&lt;/b&gt;&lt;/font&gt;" style="text;html=1;strokeColor=none;fillColor=none;align=center;verticalAlign=middle;whiteSpace=wrap;rounded=0;" parent="1" vertex="1">
          <mxGeometry x="28.8" y="1223" width="60" height="30" as="geometry" />
        </mxCell>
        <mxCell id="pcrgv22G-7Bk5gdFUB20-3" value="" style="shape=flexArrow;endArrow=classic;html=1;rounded=0;" parent="1" edge="1">
          <mxGeometry width="50" height="50" relative="1" as="geometry">
            <mxPoint x="167.18" y="1237.29" as="sourcePoint" />
            <mxPoint x="1907.18" y="1237.29" as="targetPoint" />
          </mxGeometry>
        </mxCell>
        <mxCell id="pcrgv22G-7Bk5gdFUB20-5" value="&lt;font style=&quot;font-size: 14px;&quot;&gt;&lt;b&gt;1.0 ?&lt;/b&gt;&lt;/font&gt;" style="rhombus;whiteSpace=wrap;html=1;fillColor=#d5e8d4;strokeColor=#82b366;" parent="1" vertex="1">
          <mxGeometry x="1080.8" y="1240" width="80" height="80" as="geometry" />
        </mxCell>
        <mxCell id="pcrgv22G-7Bk5gdFUB20-6" value="&lt;br&gt;&lt;div&gt;- V3.0 R&lt;br&gt;- Relance courrier (uniquement métropole ?) (mode dégradé)&lt;br&gt;&lt;/div&gt;&lt;div&gt;&lt;br&gt;&lt;/div&gt;" style="text;html=1;strokeColor=none;fillColor=none;align=center;verticalAlign=middle;whiteSpace=wrap;rounded=0;fontSize=14;" parent="1" vertex="1">
          <mxGeometry x="975.8" y="883" width="309" height="30" as="geometry" />
        </mxCell>
        <mxCell id="pcrgv22G-7Bk5gdFUB20-7" value="&lt;font size=&quot;1&quot;&gt;&lt;b style=&quot;font-size: 20px;&quot;&gt;Sabiane Gestion&lt;br&gt;&lt;/b&gt;&lt;/font&gt;" style="text;html=1;strokeColor=none;fillColor=none;align=center;verticalAlign=middle;whiteSpace=wrap;rounded=0;" parent="1" vertex="1">
          <mxGeometry x="28.799999999999997" y="940" width="21" height="30" as="geometry" />
        </mxCell>
        <mxCell id="pcrgv22G-7Bk5gdFUB20-8" value="" style="shape=flexArrow;endArrow=classic;html=1;rounded=0;" parent="1" edge="1">
          <mxGeometry width="50" height="50" relative="1" as="geometry">
            <mxPoint x="143.8" y="962.5699999999999" as="sourcePoint" />
            <mxPoint x="1895.8000000000002" y="962.5699999999999" as="targetPoint" />
          </mxGeometry>
        </mxCell>
        <mxCell id="pcrgv22G-7Bk5gdFUB20-9" value="&lt;font style=&quot;font-size: 14px;&quot;&gt;&lt;b&gt;V2.1&lt;/b&gt;&lt;/font&gt;" style="rhombus;whiteSpace=wrap;html=1;fillColor=#d5e8d4;strokeColor=#82b366;" parent="1" vertex="1">
          <mxGeometry x="655.8" y="964" width="80" height="80" as="geometry" />
        </mxCell>
        <mxCell id="pcrgv22G-7Bk5gdFUB20-10" value="&lt;font style=&quot;font-size: 14px;&quot;&gt;&lt;b&gt;V2.0&lt;/b&gt;&lt;/font&gt;" style="rhombus;whiteSpace=wrap;html=1;fillColor=#d5e8d4;strokeColor=#82b366;" parent="1" vertex="1">
          <mxGeometry x="310.8" y="969" width="80" height="80" as="geometry" />
        </mxCell>
        <mxCell id="pcrgv22G-7Bk5gdFUB20-13" value="&lt;b&gt;&lt;font style=&quot;font-size: 14px;&quot;&gt;V2.0&lt;/font&gt; Beta&lt;/b&gt;" style="rhombus;whiteSpace=wrap;html=1;fillColor=#ffe6cc;strokeColor=#d79b00;" parent="1" vertex="1">
          <mxGeometry x="499.3" y="1084" width="70" height="70" as="geometry" />
        </mxCell>
        <mxCell id="2McjSFuQ_IxXw8wRX-_E-1" value="&lt;font style=&quot;font-size: 14px;&quot;&gt;&lt;b&gt;V1&lt;br&gt;&lt;/b&gt;&lt;/font&gt;" style="rhombus;whiteSpace=wrap;html=1;fillColor=#d5e8d4;strokeColor=#82b366;" parent="1" vertex="1">
          <mxGeometry x="514.3" y="1705" width="80" height="80" as="geometry" />
        </mxCell>
        <mxCell id="2McjSFuQ_IxXw8wRX-_E-2" value="- API en production&lt;br&gt;- Export de données brutes&lt;br&gt;- Lien Protools ?&lt;br&gt;- Temps de passation de questionnaire" style="text;html=1;strokeColor=none;fillColor=none;align=center;verticalAlign=middle;whiteSpace=wrap;rounded=0;fontSize=14;" parent="1" vertex="1">
          <mxGeometry x="399.3" y="1780" width="310" height="30" as="geometry" />
        </mxCell>
        <mxCell id="2McjSFuQ_IxXw8wRX-_E-3" value="&lt;font style=&quot;font-size: 14px;&quot;&gt;&lt;b&gt;V0&lt;/b&gt;&lt;/font&gt;" style="rhombus;whiteSpace=wrap;html=1;fillColor=#ffe6cc;strokeColor=#d79b00;" parent="1" vertex="1">
          <mxGeometry x="790.8" y="1355" width="80" height="80" as="geometry" />
        </mxCell>
        <mxCell id="2McjSFuQ_IxXw8wRX-_E-4" value="&lt;div&gt;- Référentiel en production avec alimentation simple&lt;/div&gt;" style="text;html=1;strokeColor=none;fillColor=none;align=center;verticalAlign=middle;whiteSpace=wrap;rounded=0;fontSize=14;" parent="1" vertex="1">
          <mxGeometry x="650.8" y="1405" width="310" height="30" as="geometry" />
        </mxCell>
        <mxCell id="97USH-_PY3aVAxg5_6Zu-2" value="" style="ellipse;shape=cloud;whiteSpace=wrap;html=1;fontSize=15;fillColor=#d5e8d4;strokeColor=#82b366;" parent="1" vertex="1">
          <mxGeometry x="731.8" y="964" width="105" height="66" as="geometry" />
        </mxCell>
        <mxCell id="97USH-_PY3aVAxg5_6Zu-3" value="&lt;font style=&quot;font-size: 14px;&quot;&gt;&lt;b&gt;V3.0&lt;br&gt;R&lt;br&gt;&lt;/b&gt;&lt;/font&gt;" style="text;html=1;strokeColor=none;fillColor=none;align=center;verticalAlign=middle;whiteSpace=wrap;rounded=0;" parent="1" vertex="1">
          <mxGeometry x="754.3" y="982" width="60" height="30" as="geometry" />
        </mxCell>
        <mxCell id="97USH-_PY3aVAxg5_6Zu-4" value="&lt;font style=&quot;font-size: 14px;&quot;&gt;- Modularité questionnaire&lt;/font&gt;" style="text;whiteSpace=wrap;html=1;" parent="1" vertex="1">
          <mxGeometry x="800.8" y="994" width="180" height="40" as="geometry" />
        </mxCell>
        <mxCell id="97USH-_PY3aVAxg5_6Zu-5" value="" style="rhombus;whiteSpace=wrap;html=1;fillColor=#d5e8d4;strokeColor=#82b366;" parent="1" vertex="1">
          <mxGeometry x="1080.8" y="969" width="80" height="80" as="geometry" />
        </mxCell>
        <mxCell id="97USH-_PY3aVAxg5_6Zu-6" value="&lt;font style=&quot;font-size: 14px;&quot;&gt;&lt;b&gt;V3.0&lt;br&gt;&lt;/b&gt;&lt;/font&gt;" style="text;html=1;strokeColor=none;fillColor=none;align=center;verticalAlign=middle;whiteSpace=wrap;rounded=0;" parent="1" vertex="1">
          <mxGeometry x="1087.8" y="994" width="60" height="30" as="geometry" />
        </mxCell>
        <mxCell id="97USH-_PY3aVAxg5_6Zu-8" value="&lt;b&gt;Test EDT&lt;br&gt;&lt;/b&gt;" style="ellipse;whiteSpace=wrap;html=1;aspect=fixed;fontSize=15;fillColor=#f8cecc;strokeColor=#b85450;" parent="1" vertex="1">
          <mxGeometry x="889.38" y="-961" width="70" height="70" as="geometry" />
        </mxCell>
        <mxCell id="97USH-_PY3aVAxg5_6Zu-9" value="&lt;b&gt;&lt;font style=&quot;font-size: 14px;&quot;&gt;Test SDT ?&lt;/font&gt;&lt;/b&gt;" style="ellipse;whiteSpace=wrap;html=1;aspect=fixed;fontSize=15;" parent="1" vertex="1">
          <mxGeometry x="884.38" y="-1036" width="70" height="70" as="geometry" />
        </mxCell>
        <mxCell id="97USH-_PY3aVAxg5_6Zu-10" value="&lt;b&gt;Test Santé ?&lt;br&gt;&lt;/b&gt;" style="ellipse;whiteSpace=wrap;html=1;aspect=fixed;fontSize=15;" parent="1" vertex="1">
          <mxGeometry x="1216.38" y="-1035" width="70" height="70" as="geometry" />
        </mxCell>
        <mxCell id="pcrgv22G-7Bk5gdFUB20-12" value="- Premiers retours utilisateurs ?&lt;br&gt;-&amp;nbsp; Consolidation technique performance" style="text;html=1;strokeColor=none;fillColor=none;align=center;verticalAlign=middle;whiteSpace=wrap;rounded=0;fontSize=14;" parent="1" vertex="1">
          <mxGeometry x="535.8" y="1012" width="310" height="30" as="geometry" />
        </mxCell>
        <mxCell id="97USH-_PY3aVAxg5_6Zu-12" value="- Adaptation fàf du suivi&lt;br&gt;- Adaptation fàf de la clotûre&lt;br&gt;" style="text;html=1;strokeColor=none;fillColor=none;align=center;verticalAlign=middle;whiteSpace=wrap;rounded=0;fontSize=14;" parent="1" vertex="1">
          <mxGeometry x="155.8" y="1030" width="310" height="30" as="geometry" />
        </mxCell>
        <mxCell id="97USH-_PY3aVAxg5_6Zu-13" value="&lt;br&gt;&lt;div&gt;- V3.0 R&lt;br&gt;- Profil national&lt;br&gt;- Suivi des relances courriers&lt;br&gt;&lt;/div&gt;&lt;div&gt;&lt;br&gt;&lt;/div&gt;" style="text;html=1;strokeColor=none;fillColor=none;align=center;verticalAlign=middle;whiteSpace=wrap;rounded=0;fontSize=14;" parent="1" vertex="1">
          <mxGeometry x="975.8" y="1034" width="309" height="30" as="geometry" />
        </mxCell>
        <mxCell id="97USH-_PY3aVAxg5_6Zu-14" value="&lt;font style=&quot;font-size: 14px;&quot;&gt;&lt;b&gt;V 999&lt;/b&gt;&lt;/font&gt;" style="rhombus;whiteSpace=wrap;html=1;fillColor=#d5e8d4;strokeColor=#82b366;" parent="1" vertex="1">
          <mxGeometry x="1975.8" y="964" width="80" height="80" as="geometry" />
        </mxCell>
        <mxCell id="97USH-_PY3aVAxg5_6Zu-15" value="&lt;br&gt;&lt;div&gt;- Notifications&lt;/div&gt;&lt;div&gt;- Appli mobile&lt;br&gt;&lt;/div&gt;&lt;div&gt;- Fonctionnel &quot;RDV&quot;&lt;br&gt;- suivi rel&lt;span style=&quot;&quot;&gt;ance par mail&lt;br&gt;&lt;/span&gt;- suivi rel&lt;span style=&quot;&quot;&gt;ance de masse&lt;br&gt;&lt;/span&gt;&lt;/div&gt;&lt;div&gt;&lt;br&gt;&lt;br&gt;&lt;/div&gt;" style="text;html=1;strokeColor=none;fillColor=none;align=center;verticalAlign=middle;whiteSpace=wrap;rounded=0;fontSize=14;" parent="1" vertex="1">
          <mxGeometry x="1930.8" y="1044" width="270" height="30" as="geometry" />
        </mxCell>
        <mxCell id="97USH-_PY3aVAxg5_6Zu-16" value="&lt;font style=&quot;font-size: 14px;&quot;&gt;&lt;b&gt;V4.1&lt;/b&gt;&lt;/font&gt;" style="rhombus;whiteSpace=wrap;html=1;fillColor=#d5e8d4;strokeColor=#82b366;" parent="1" vertex="1">
          <mxGeometry x="1650.8" y="962" width="80" height="80" as="geometry" />
        </mxCell>
        <mxCell id="97USH-_PY3aVAxg5_6Zu-17" value="&lt;font style=&quot;font-size: 14px;&quot;&gt;&lt;b&gt;V3.1 ?&lt;br&gt;&lt;/b&gt;&lt;/font&gt;" style="rhombus;whiteSpace=wrap;html=1;fillColor=#d5e8d4;strokeColor=#82b366;" parent="1" vertex="1">
          <mxGeometry x="1197.8" y="969" width="80" height="80" as="geometry" />
        </mxCell>
        <mxCell id="97USH-_PY3aVAxg5_6Zu-18" value="- suivi double visite ? multimode ?" style="text;html=1;strokeColor=none;fillColor=none;align=center;verticalAlign=middle;whiteSpace=wrap;rounded=0;fontSize=14;" parent="1" vertex="1">
          <mxGeometry x="1147.8" y="1014" width="309" height="30" as="geometry" />
        </mxCell>
        <mxCell id="97USH-_PY3aVAxg5_6Zu-19" value="&lt;font style=&quot;font-size: 14px;&quot;&gt;&lt;b&gt;V3.1&lt;/b&gt;&lt;/font&gt;" style="rhombus;whiteSpace=wrap;html=1;fillColor=#d5e8d4;strokeColor=#82b366;" parent="1" vertex="1">
          <mxGeometry x="1190.8" y="803" width="80" height="80" as="geometry" />
        </mxCell>
        <mxCell id="97USH-_PY3aVAxg5_6Zu-20" value="- Double visite" style="text;html=1;strokeColor=none;fillColor=none;align=center;verticalAlign=middle;whiteSpace=wrap;rounded=0;fontSize=14;" parent="1" vertex="1">
          <mxGeometry x="1072.8" y="854" width="309" height="30" as="geometry" />
        </mxCell>
        <mxCell id="97USH-_PY3aVAxg5_6Zu-21" value="&#xa;- Adaptation fàf du suivi&#xa;&#xa;" style="text;html=1;strokeColor=none;fillColor=none;align=center;verticalAlign=middle;whiteSpace=wrap;rounded=0;fontSize=14;" parent="1" vertex="1">
          <mxGeometry x="1534.8" y="1034" width="309" height="30" as="geometry" />
        </mxCell>
        <mxCell id="97USH-_PY3aVAxg5_6Zu-26" value="&lt;font style=&quot;font-size: 14px;&quot;&gt;&lt;b&gt;V 999&lt;/b&gt;&lt;/font&gt;" style="rhombus;whiteSpace=wrap;html=1;fillColor=#d5e8d4;strokeColor=#82b366;" parent="1" vertex="1">
          <mxGeometry x="1907" y="-50" width="80" height="80" as="geometry" />
        </mxCell>
        <mxCell id="97USH-_PY3aVAxg5_6Zu-27" value="&lt;br&gt;&lt;div&gt;- Notifications&lt;/div&gt;&lt;div&gt;- Appli mobile&lt;br&gt;&lt;/div&gt;&lt;div&gt;- Fonctionnel &quot;RDV&quot;&lt;br&gt;- rel&lt;span style=&quot;white-space: pre;&quot;&gt;ance par mail&lt;/span&gt;&lt;br&gt;&lt;/div&gt;&lt;div&gt;&lt;br&gt;&lt;/div&gt;" style="text;html=1;strokeColor=none;fillColor=none;align=center;verticalAlign=middle;whiteSpace=wrap;rounded=0;fontSize=14;" parent="1" vertex="1">
          <mxGeometry x="1930.8" y="870" width="270" height="30" as="geometry" />
        </mxCell>
        <mxCell id="vozaQE-ynMEkPl2pL4Hx-25" value="&lt;div&gt;- règle de complétude pour l&#39;avancée du processus (bascule, ...)&lt;br&gt;&lt;/div&gt;" style="text;html=1;strokeColor=none;fillColor=none;align=center;verticalAlign=middle;whiteSpace=wrap;rounded=0;fontSize=14;" parent="1" vertex="1">
          <mxGeometry x="1897" y="20" width="195" height="30" as="geometry" />
        </mxCell>
        <mxCell id="97USH-_PY3aVAxg5_6Zu-30" value="&lt;font style=&quot;font-size: 20px;&quot;&gt;&lt;b&gt;Infocentre&lt;/b&gt;&lt;/font&gt;" style="text;html=1;strokeColor=none;fillColor=none;align=center;verticalAlign=middle;whiteSpace=wrap;rounded=0;" parent="1" vertex="1">
          <mxGeometry x="20.18" y="490" width="60" height="30" as="geometry" />
        </mxCell>
        <mxCell id="97USH-_PY3aVAxg5_6Zu-32" value="" style="shape=flexArrow;endArrow=classic;html=1;rounded=0;" parent="1" edge="1">
          <mxGeometry width="50" height="50" relative="1" as="geometry">
            <mxPoint x="158.88" y="510" as="sourcePoint" />
            <mxPoint x="1898.88" y="510" as="targetPoint" />
          </mxGeometry>
        </mxCell>
        <mxCell id="97USH-_PY3aVAxg5_6Zu-35" value="&lt;font style=&quot;font-size: 18px;&quot;&gt;&lt;b&gt;Massive Attack&lt;/b&gt;&lt;/font&gt;" style="text;html=1;strokeColor=none;fillColor=none;align=center;verticalAlign=middle;whiteSpace=wrap;rounded=0;" parent="1" vertex="1">
          <mxGeometry x="0.8099999999999996" y="1460" width="142.75" height="30" as="geometry" />
        </mxCell>
        <mxCell id="97USH-_PY3aVAxg5_6Zu-37" value="" style="shape=flexArrow;endArrow=classic;html=1;rounded=0;" parent="1" edge="1">
          <mxGeometry width="50" height="50" relative="1" as="geometry">
            <mxPoint x="167.18" y="1474.29" as="sourcePoint" />
            <mxPoint x="1907.18" y="1474.29" as="targetPoint" />
          </mxGeometry>
        </mxCell>
        <mxCell id="97USH-_PY3aVAxg5_6Zu-38" value="&lt;font style=&quot;font-size: 14px;&quot;&gt;&lt;b&gt;V1.0&lt;/b&gt;&lt;/font&gt;" style="rhombus;whiteSpace=wrap;html=1;fillColor=#d5e8d4;strokeColor=#82b366;" parent="1" vertex="1">
          <mxGeometry x="531.05" y="1470" width="80" height="80" as="geometry" />
        </mxCell>
        <mxCell id="97USH-_PY3aVAxg5_6Zu-39" value="&lt;br&gt;&lt;div&gt;- Performance&lt;/div&gt;&lt;div&gt;- Administration des sessions avancée&lt;br&gt;&lt;/div&gt;" style="text;html=1;strokeColor=none;fillColor=none;align=center;verticalAlign=middle;whiteSpace=wrap;rounded=0;fontSize=14;" parent="1" vertex="1">
          <mxGeometry x="420.05" y="1520" width="310" height="30" as="geometry" />
        </mxCell>
        <mxCell id="97USH-_PY3aVAxg5_6Zu-41" value="&lt;font style=&quot;font-size: 14px;&quot;&gt;&lt;b&gt;V1.1&lt;/b&gt;&lt;/font&gt;" style="rhombus;whiteSpace=wrap;html=1;fillColor=#d5e8d4;strokeColor=#82b366;" parent="1" vertex="1">
          <mxGeometry x="1042.05" y="1470" width="80" height="80" as="geometry" />
        </mxCell>
        <mxCell id="97USH-_PY3aVAxg5_6Zu-42" value="&lt;br&gt;- Modularité questionnaire" style="text;html=1;strokeColor=none;fillColor=none;align=center;verticalAlign=middle;whiteSpace=wrap;rounded=0;fontSize=14;" parent="1" vertex="1">
          <mxGeometry x="925.05" y="1510" width="310" height="30" as="geometry" />
        </mxCell>
        <mxCell id="41TlBi8JAUF4e2feWYWV-1" value="&lt;font style=&quot;font-size: 14px;&quot;&gt;&lt;b&gt;V2.1&lt;/b&gt;&lt;/font&gt;" style="rhombus;whiteSpace=wrap;html=1;fillColor=#d5e8d4;strokeColor=#82b366;" parent="1" vertex="1">
          <mxGeometry x="1080.8" y="1088" width="70" height="70" as="geometry" />
        </mxCell>
        <mxCell id="41TlBi8JAUF4e2feWYWV-2" value="- Contexte d&#39;accès aux questions (tardif, ...) dans le portail de promotion&lt;br&gt;- Outils d&#39;assistance interactifs&lt;br&gt;- Centralisation des logs/surveillance" style="text;html=1;strokeColor=none;fillColor=none;align=center;verticalAlign=middle;whiteSpace=wrap;rounded=0;fontSize=14;" parent="1" vertex="1">
          <mxGeometry x="959.55" y="1164" width="206.25" height="30" as="geometry" />
        </mxCell>
        <mxCell id="41TlBi8JAUF4e2feWYWV-3" value="&lt;font style=&quot;font-size: 14px;&quot;&gt;&lt;b&gt;V2.3&lt;/b&gt;&lt;/font&gt;" style="rhombus;whiteSpace=wrap;html=1;fillColor=#ffe6cc;strokeColor=#d79b00;" parent="1" vertex="1">
          <mxGeometry x="1322.3" y="1085" width="70" height="70" as="geometry" />
        </mxCell>
        <mxCell id="41TlBi8JAUF4e2feWYWV-4" value="- Convergence ménage/entreprise&lt;br&gt;- Pilotage constat de non réponse/mise en demeure&lt;br&gt;- Preuve de dépot" style="text;html=1;strokeColor=none;fillColor=none;align=center;verticalAlign=middle;whiteSpace=wrap;rounded=0;fontSize=14;" parent="1" vertex="1">
          <mxGeometry x="1335.8" y="1139" width="280" height="30" as="geometry" />
        </mxCell>
        <mxCell id="41TlBi8JAUF4e2feWYWV-6" value="&lt;font style=&quot;font-size: 14px;&quot;&gt;&lt;b&gt;V2.2&lt;/b&gt;&lt;/font&gt;" style="rhombus;whiteSpace=wrap;html=1;fillColor=#d5e8d4;strokeColor=#82b366;" parent="1" vertex="1">
          <mxGeometry x="1205.8" y="1085" width="70" height="70" as="geometry" />
        </mxCell>
        <mxCell id="41TlBi8JAUF4e2feWYWV-7" value="- Décommisionnement Coleman v1" style="text;html=1;strokeColor=none;fillColor=none;align=center;verticalAlign=middle;whiteSpace=wrap;rounded=0;fontSize=14;" parent="1" vertex="1">
          <mxGeometry x="1190.8" y="1158" width="185" height="30" as="geometry" />
        </mxCell>
        <mxCell id="41TlBi8JAUF4e2feWYWV-9" value="&lt;font style=&quot;font-size: 14px;&quot;&gt;&lt;b&gt;V2.0&lt;/b&gt;&lt;/font&gt;" style="rhombus;whiteSpace=wrap;html=1;fillColor=#d5e8d4;strokeColor=#82b366;" parent="1" vertex="1">
          <mxGeometry x="785.8" y="1088" width="70" height="70" as="geometry" />
        </mxCell>
        <mxCell id="41TlBi8JAUF4e2feWYWV-10" value="- V2.0 Beta&lt;br&gt;" style="text;html=1;strokeColor=none;fillColor=none;align=center;verticalAlign=middle;whiteSpace=wrap;rounded=0;fontSize=14;" parent="1" vertex="1">
          <mxGeometry x="684.8" y="1150" width="271" height="30" as="geometry" />
        </mxCell>
        <mxCell id="41TlBi8JAUF4e2feWYWV-11" value="&lt;font style=&quot;font-size: 14px;&quot;&gt;&lt;b&gt;V1.9&lt;/b&gt;&lt;/font&gt;" style="rhombus;whiteSpace=wrap;html=1;fillColor=#d5e8d4;strokeColor=#82b366;" parent="1" vertex="1">
          <mxGeometry x="431.8" y="1085" width="70" height="70" as="geometry" />
        </mxCell>
        <mxCell id="41TlBi8JAUF4e2feWYWV-13" value="&lt;div&gt;- Poc Coleman + Coltrane (avec double compte)&lt;/div&gt;- Authentification articulée sans fédération" style="text;html=1;strokeColor=none;fillColor=none;align=center;verticalAlign=middle;whiteSpace=wrap;rounded=0;fontSize=14;" parent="1" vertex="1">
          <mxGeometry x="491.3" y="1169" width="186" height="30" as="geometry" />
        </mxCell>
        <mxCell id="pcrgv22G-7Bk5gdFUB20-15" value="&lt;div&gt;- Lien Protools&lt;br&gt;&lt;/div&gt;- Authentification RP&lt;br&gt;- Internalisation courriers &lt;br&gt;mot de passe" style="text;html=1;strokeColor=none;fillColor=none;align=center;verticalAlign=middle;whiteSpace=wrap;rounded=0;fontSize=14;" parent="1" vertex="1">
          <mxGeometry x="300.3" y="1158" width="271" height="30" as="geometry" />
        </mxCell>
        <mxCell id="41TlBi8JAUF4e2feWYWV-15" value="&lt;font style=&quot;font-size: 14px;&quot;&gt;&lt;b&gt;V 999&lt;/b&gt;&lt;/font&gt;" style="rhombus;whiteSpace=wrap;html=1;fillColor=#d5e8d4;strokeColor=#82b366;" parent="1" vertex="1">
          <mxGeometry x="1977.8" y="1085" width="80" height="80" as="geometry" />
        </mxCell>
        <mxCell id="41TlBi8JAUF4e2feWYWV-16" value="&lt;br&gt;&lt;div&gt;- Décommisionnement Coltrane&lt;br&gt;- Persistance de fichiers dans les formats de réponse&lt;br&gt;- BDD MongoDB&lt;br&gt;&lt;/div&gt;&lt;div&gt;&lt;br&gt;&lt;br&gt;&lt;/div&gt;" style="text;html=1;strokeColor=none;fillColor=none;align=center;verticalAlign=middle;whiteSpace=wrap;rounded=0;fontSize=14;" parent="1" vertex="1">
          <mxGeometry x="1965.8" y="1155" width="270" height="30" as="geometry" />
        </mxCell>
        <mxCell id="41TlBi8JAUF4e2feWYWV-17" value="&lt;font style=&quot;font-size: 14px;&quot;&gt;&lt;b&gt;V2.4 ?&lt;br&gt;&lt;/b&gt;&lt;/font&gt;" style="rhombus;whiteSpace=wrap;html=1;fillColor=#d5e8d4;strokeColor=#82b366;" parent="1" vertex="1">
          <mxGeometry x="1660.8" y="1088" width="70" height="70" as="geometry" />
        </mxCell>
        <mxCell id="41TlBi8JAUF4e2feWYWV-18" value="- Interface dépôt/retrait ?" style="text;html=1;strokeColor=none;fillColor=none;align=center;verticalAlign=middle;whiteSpace=wrap;rounded=0;fontSize=14;" parent="1" vertex="1">
          <mxGeometry x="1615.8" y="1135" width="280" height="30" as="geometry" />
        </mxCell>
        <mxCell id="41TlBi8JAUF4e2feWYWV-19" value="Enquête entreprise ?" style="ellipse;whiteSpace=wrap;html=1;aspect=fixed;fontSize=15;" parent="1" vertex="1">
          <mxGeometry x="1330.38" y="-1040" width="70" height="70" as="geometry" />
        </mxCell>
        <mxCell id="71KaKMyTYkSc-oWs3CCU-1" value="&lt;font style=&quot;font-size: 14px;&quot;&gt;&lt;b&gt;V1.3&lt;/b&gt;&lt;/font&gt;" style="rhombus;whiteSpace=wrap;html=1;fillColor=#d5e8d4;strokeColor=#82b366;" parent="1" vertex="1">
          <mxGeometry x="1110.8" y="1705" width="80" height="80" as="geometry" />
        </mxCell>
        <mxCell id="71KaKMyTYkSc-oWs3CCU-2" value="- V1.2 R&lt;br&gt;- Service de retour de collecte (aval REM)&lt;br&gt;- Alimentation poste de reprise codification" style="text;html=1;strokeColor=none;fillColor=none;align=center;verticalAlign=middle;whiteSpace=wrap;rounded=0;fontSize=14;" parent="1" vertex="1">
          <mxGeometry x="997.8" y="1765" width="310" height="30" as="geometry" />
        </mxCell>
        <mxCell id="71KaKMyTYkSc-oWs3CCU-3" value="&lt;b&gt;V1.1 R&lt;/b&gt;" style="ellipse;shape=cloud;whiteSpace=wrap;html=1;fillColor=#d5e8d4;strokeColor=#82b366;" parent="1" vertex="1">
          <mxGeometry x="759.55" y="1700" width="90" height="70" as="geometry" />
        </mxCell>
        <mxCell id="97USH-_PY3aVAxg5_6Zu-34" value="- Temps de passation modulaire&lt;br&gt;" style="text;html=1;strokeColor=none;fillColor=none;align=center;verticalAlign=middle;whiteSpace=wrap;rounded=0;fontSize=14;" parent="1" vertex="1">
          <mxGeometry x="709.55" y="1750" width="176.25" height="30" as="geometry" />
        </mxCell>
        <mxCell id="71KaKMyTYkSc-oWs3CCU-4" value="&lt;b&gt;V1.2 R&lt;/b&gt;" style="ellipse;shape=cloud;whiteSpace=wrap;html=1;fillColor=#d5e8d4;strokeColor=#82b366;" parent="1" vertex="1">
          <mxGeometry x="920.8" y="1700" width="90" height="60" as="geometry" />
        </mxCell>
        <mxCell id="71KaKMyTYkSc-oWs3CCU-5" value="- Traitements standards TCM - MVP" style="text;html=1;strokeColor=none;fillColor=none;align=center;verticalAlign=middle;whiteSpace=wrap;rounded=0;fontSize=14;" parent="1" vertex="1">
          <mxGeometry x="885.8" y="1750" width="160" height="30" as="geometry" />
        </mxCell>
        <mxCell id="71KaKMyTYkSc-oWs3CCU-6" value="&lt;b&gt;V1.4 R&lt;/b&gt;" style="ellipse;shape=cloud;whiteSpace=wrap;html=1;fillColor=#d5e8d4;strokeColor=#82b366;" parent="1" vertex="1">
          <mxGeometry x="1551.8" y="1700" width="90" height="60" as="geometry" />
        </mxCell>
        <mxCell id="71KaKMyTYkSc-oWs3CCU-8" value="&lt;font style=&quot;font-size: 14px;&quot;&gt;&lt;b&gt;V 999&lt;/b&gt;&lt;/font&gt;" style="rhombus;whiteSpace=wrap;html=1;fillColor=#d5e8d4;strokeColor=#82b366;" parent="1" vertex="1">
          <mxGeometry x="2005.8" y="1700" width="80" height="80" as="geometry" />
        </mxCell>
        <mxCell id="71KaKMyTYkSc-oWs3CCU-9" value="- Traitements asynchrones de type R ou Python ?&lt;br&gt;- Interface de conception de traitements (en VTL)" style="text;html=1;strokeColor=none;fillColor=none;align=center;verticalAlign=middle;whiteSpace=wrap;rounded=0;fontSize=14;" parent="1" vertex="1">
          <mxGeometry x="1984.8" y="1770" width="237" height="30" as="geometry" />
        </mxCell>
        <mxCell id="71KaKMyTYkSc-oWs3CCU-10" value="&lt;font style=&quot;font-size: 14px;&quot;&gt;&lt;b&gt;V1.5&lt;/b&gt;&lt;/font&gt;" style="rhombus;whiteSpace=wrap;html=1;fillColor=#d5e8d4;strokeColor=#82b366;" parent="1" vertex="1">
          <mxGeometry x="1685.8" y="1700" width="80" height="80" as="geometry" />
        </mxCell>
        <mxCell id="71KaKMyTYkSc-oWs3CCU-11" value="&lt;font style=&quot;font-size: 14px;&quot;&gt;&lt;b&gt;V1 ?&lt;br&gt;&lt;/b&gt;&lt;/font&gt;" style="rhombus;whiteSpace=wrap;html=1;fillColor=#ffe6cc;strokeColor=#d79b00;" parent="1" vertex="1">
          <mxGeometry x="1653.3" y="1355" width="80" height="80" as="geometry" />
        </mxCell>
        <mxCell id="71KaKMyTYkSc-oWs3CCU-12" value="- Lien Protools ?" style="text;html=1;strokeColor=none;fillColor=none;align=center;verticalAlign=middle;whiteSpace=wrap;rounded=0;fontSize=14;" parent="1" vertex="1">
          <mxGeometry x="1528.8" y="1405" width="310" height="30" as="geometry" />
        </mxCell>
        <mxCell id="71KaKMyTYkSc-oWs3CCU-13" value="- Traitements standards TCM - Hors MVP" style="text;html=1;strokeColor=none;fillColor=none;align=center;verticalAlign=middle;whiteSpace=wrap;rounded=0;fontSize=14;" parent="1" vertex="1">
          <mxGeometry x="1490.8" y="1760" width="188" height="30" as="geometry" />
        </mxCell>
        <mxCell id="71KaKMyTYkSc-oWs3CCU-7" value="- V1.4 R&lt;br&gt;- Alimenter Genesis&lt;br&gt;- Préparer données antérieures pour questionnaire" style="text;html=1;strokeColor=none;fillColor=none;align=center;verticalAlign=middle;whiteSpace=wrap;rounded=0;fontSize=14;" parent="1" vertex="1">
          <mxGeometry x="1645.8" y="1770" width="237" height="30" as="geometry" />
        </mxCell>
        <mxCell id="2GncXm-soGQ-psTZypHw-1" value="&lt;b&gt;Proto&lt;br&gt;Famille&lt;/b&gt;" style="ellipse;whiteSpace=wrap;html=1;aspect=fixed;fontSize=15;fillColor=#ffe6cc;strokeColor=#d79b00;" parent="1" vertex="1">
          <mxGeometry x="429.38" y="-922" width="65" height="65" as="geometry" />
        </mxCell>
        <mxCell id="2GncXm-soGQ-psTZypHw-4" value="- V0.8 R" style="text;html=1;strokeColor=none;fillColor=none;align=center;verticalAlign=middle;whiteSpace=wrap;rounded=0;fontSize=14;" parent="1" vertex="1">
          <mxGeometry x="397" width="200" height="30" as="geometry" />
        </mxCell>
        <mxCell id="2GncXm-soGQ-psTZypHw-5" value="&lt;font size=&quot;1&quot;&gt;&lt;b style=&quot;font-size: 14px;&quot;&gt;0.8&lt;/b&gt;&lt;/font&gt;" style="rhombus;whiteSpace=wrap;html=1;fillColor=#ffe6cc;strokeColor=#d79b00;" parent="1" vertex="1">
          <mxGeometry x="494.3" y="1240" width="80" height="80" as="geometry" />
        </mxCell>
        <mxCell id="2GncXm-soGQ-psTZypHw-8" value="&lt;font size=&quot;1&quot;&gt;&lt;b style=&quot;font-size: 14px;&quot;&gt;0.9&lt;/b&gt;&lt;/font&gt;" style="rhombus;whiteSpace=wrap;html=1;fillColor=#ffe6cc;strokeColor=#d79b00;" parent="1" vertex="1">
          <mxGeometry x="615.8" y="1240" width="80" height="80" as="geometry" />
        </mxCell>
        <mxCell id="2GncXm-soGQ-psTZypHw-9" value="&lt;div&gt;- envoi&lt;br&gt;&lt;/div&gt;&amp;nbsp;unitaire de courrier (depuis Coleman)&lt;br&gt;- envoi massif" style="text;html=1;strokeColor=none;fillColor=none;align=center;verticalAlign=middle;whiteSpace=wrap;rounded=0;fontSize=14;" parent="1" vertex="1">
          <mxGeometry x="609.8" y="1290" width="186" height="30" as="geometry" />
        </mxCell>
        <mxCell id="2GncXm-soGQ-psTZypHw-10" value="- module isolé&lt;br&gt;- suivi PND ?&lt;br&gt;" style="text;html=1;strokeColor=none;fillColor=none;align=center;verticalAlign=middle;whiteSpace=wrap;rounded=0;fontSize=14;" parent="1" vertex="1">
          <mxGeometry x="1053.3" y="1299" width="205" height="30" as="geometry" />
        </mxCell>
        <mxCell id="2GncXm-soGQ-psTZypHw-11" value="&lt;font style=&quot;font-size: 14px;&quot;&gt;&lt;b&gt;1.1&lt;/b&gt;&lt;/font&gt;" style="rhombus;whiteSpace=wrap;html=1;fillColor=#d5e8d4;strokeColor=#82b366;" parent="1" vertex="1">
          <mxGeometry x="1460.8" y="1240" width="80" height="80" as="geometry" />
        </mxCell>
        <mxCell id="2GncXm-soGQ-psTZypHw-12" value="- ensemble de documents" style="text;html=1;strokeColor=none;fillColor=none;align=center;verticalAlign=middle;whiteSpace=wrap;rounded=0;fontSize=14;" parent="1" vertex="1">
          <mxGeometry x="1398.3" y="1290" width="205" height="30" as="geometry" />
        </mxCell>
        <mxCell id="2GncXm-soGQ-psTZypHw-6" value="&lt;div&gt;- envoi&lt;br&gt;&lt;/div&gt;&amp;nbsp;unitaire de mails (depuis Coleman)" style="text;html=1;strokeColor=none;fillColor=none;align=center;verticalAlign=middle;whiteSpace=wrap;rounded=0;fontSize=14;" parent="1" vertex="1">
          <mxGeometry x="474.8" y="1299" width="186" height="30" as="geometry" />
        </mxCell>
        <mxCell id="czzaWYQMw-Fghf4ZsUuF-1" value="&lt;font style=&quot;font-size: 14px;&quot;&gt;&lt;b&gt;V0.5&lt;/b&gt;&lt;/font&gt;" style="ellipse;shape=cloud;whiteSpace=wrap;html=1;fillColor=#d5e8d4;strokeColor=#82b366;" parent="1" vertex="1">
          <mxGeometry x="250.05" y="1470" width="90" height="70" as="geometry" />
        </mxCell>
        <mxCell id="97USH-_PY3aVAxg5_6Zu-45" value="- Adaptation fàf" style="text;html=1;strokeColor=none;fillColor=none;align=center;verticalAlign=middle;whiteSpace=wrap;rounded=0;fontSize=14;" parent="1" vertex="1">
          <mxGeometry x="138.55" y="1515" width="310" height="30" as="geometry" />
        </mxCell>
        <mxCell id="czzaWYQMw-Fghf4ZsUuF-3" value="&lt;font style=&quot;font-size: 14px;&quot;&gt;&lt;b&gt;V1&lt;br&gt;&lt;/b&gt;&lt;/font&gt;" style="rhombus;whiteSpace=wrap;html=1;fillColor=#d5e8d4;strokeColor=#82b366;" parent="1" vertex="1">
          <mxGeometry x="572.8" y="505" width="80" height="80" as="geometry" />
        </mxCell>
        <mxCell id="czzaWYQMw-Fghf4ZsUuF-5" value="&lt;div&gt;- Adaptation calcul des codes&lt;/div&gt;&lt;div&gt;&amp;nbsp;résultats tel (jalon 3)&lt;/div&gt;" style="text;html=1;strokeColor=none;fillColor=none;align=center;verticalAlign=middle;whiteSpace=wrap;rounded=0;fontSize=14;" parent="1" vertex="1">
          <mxGeometry x="449.3" y="565" width="310" height="30" as="geometry" />
        </mxCell>
        <mxCell id="czzaWYQMw-Fghf4ZsUuF-6" value="&lt;font style=&quot;font-size: 14px;&quot;&gt;&lt;b&gt;V1.1&lt;br&gt;&lt;/b&gt;&lt;/font&gt;" style="rhombus;whiteSpace=wrap;html=1;fillColor=#d5e8d4;strokeColor=#82b366;" parent="1" vertex="1">
          <mxGeometry x="776.3" y="500" width="80" height="80" as="geometry" />
        </mxCell>
        <mxCell id="czzaWYQMw-Fghf4ZsUuF-7" value="&lt;div&gt;- Adaptation calcul des codes&lt;/div&gt;&lt;div&gt;&amp;nbsp;résultats f-à-f (jalon 3)&lt;/div&gt;" style="text;html=1;strokeColor=none;fillColor=none;align=center;verticalAlign=middle;whiteSpace=wrap;rounded=0;fontSize=14;" parent="1" vertex="1">
          <mxGeometry x="652.8" y="560" width="310" height="30" as="geometry" />
        </mxCell>
        <mxCell id="czzaWYQMw-Fghf4ZsUuF-8" value="&lt;font style=&quot;font-size: 14px;&quot;&gt;&lt;b&gt;V1.2&lt;br&gt;&lt;/b&gt;&lt;/font&gt;" style="rhombus;whiteSpace=wrap;html=1;fillColor=#d5e8d4;strokeColor=#82b366;" parent="1" vertex="1">
          <mxGeometry x="1033.3" y="505" width="80" height="80" as="geometry" />
        </mxCell>
        <mxCell id="czzaWYQMw-Fghf4ZsUuF-9" value="&lt;div&gt;- Temps de passation + relances&lt;br&gt;&lt;/div&gt;&lt;div&gt;- Intégration automatisée&lt;br&gt;&lt;/div&gt;" style="text;html=1;strokeColor=none;fillColor=none;align=center;verticalAlign=middle;whiteSpace=wrap;rounded=0;fontSize=14;" parent="1" vertex="1">
          <mxGeometry x="909.8" y="565" width="310" height="30" as="geometry" />
        </mxCell>
        <mxCell id="czzaWYQMw-Fghf4ZsUuF-10" value="&lt;font style=&quot;font-size: 14px;&quot;&gt;&lt;b&gt;V 999&lt;/b&gt;&lt;/font&gt;" style="rhombus;whiteSpace=wrap;html=1;fillColor=#d5e8d4;strokeColor=#82b366;" parent="1" vertex="1">
          <mxGeometry x="1932.8" y="510" width="80" height="80" as="geometry" />
        </mxCell>
        <mxCell id="czzaWYQMw-Fghf4ZsUuF-11" value="&lt;div&gt;- Prise en compte des reprises (activité et diplômes)&lt;/div&gt;&lt;div&gt;- Retours Web pour une enquête multimode ?&lt;br&gt;&lt;/div&gt;" style="text;html=1;strokeColor=none;fillColor=none;align=center;verticalAlign=middle;whiteSpace=wrap;rounded=0;fontSize=14;" parent="1" vertex="1">
          <mxGeometry x="1856.3" y="580" width="237" height="30" as="geometry" />
        </mxCell>
        <mxCell id="xNABrJWw2-1LNLXo3Lx6-3" value="&lt;b&gt;&lt;font style=&quot;font-size: 20px;&quot;&gt;Atelier conception d&#39;enquête&lt;br&gt;&lt;/font&gt;&lt;/b&gt;" style="text;html=1;strokeColor=#9673a6;fillColor=#e1d5e7;align=center;verticalAlign=middle;whiteSpace=wrap;rounded=0;" parent="1" vertex="1">
          <mxGeometry x="0.81" y="-880" width="119.19" height="100" as="geometry" />
        </mxCell>
        <mxCell id="xNABrJWw2-1LNLXo3Lx6-5" value="&lt;div style=&quot;font-size: 20px;&quot;&gt;&lt;b&gt;Opérations&lt;/b&gt;&lt;/div&gt;" style="text;html=1;strokeColor=none;fillColor=none;align=center;verticalAlign=middle;whiteSpace=wrap;rounded=0;" parent="1" vertex="1">
          <mxGeometry x="31.380000000000003" y="-985" width="70" height="30" as="geometry" />
        </mxCell>
        <mxCell id="xNABrJWw2-1LNLXo3Lx6-6" value="" style="shape=flexArrow;endArrow=classic;html=1;rounded=0;fillColor=#e1d5e7;strokeColor=#9673a6;" parent="1" edge="1">
          <mxGeometry width="50" height="50" relative="1" as="geometry">
            <mxPoint x="160" y="-150" as="sourcePoint" />
            <mxPoint x="1890" y="-150" as="targetPoint" />
          </mxGeometry>
        </mxCell>
        <mxCell id="xNABrJWw2-1LNLXo3Lx6-7" value="janvier 2023" style="text;html=1;strokeColor=none;fillColor=none;align=center;verticalAlign=middle;whiteSpace=wrap;rounded=0;" parent="1" vertex="1">
          <mxGeometry x="472.5" y="-150" width="97.5" height="30" as="geometry" />
        </mxCell>
        <mxCell id="xNABrJWw2-1LNLXo3Lx6-8" value="octobre 2022" style="text;html=1;strokeColor=none;fillColor=none;align=center;verticalAlign=middle;whiteSpace=wrap;rounded=0;" parent="1" vertex="1">
          <mxGeometry x="225.75" y="-150" width="97.5" height="30" as="geometry" />
        </mxCell>
        <mxCell id="xNABrJWw2-1LNLXo3Lx6-9" value="avril 2023" style="text;html=1;strokeColor=none;fillColor=none;align=center;verticalAlign=middle;whiteSpace=wrap;rounded=0;" parent="1" vertex="1">
          <mxGeometry x="707" y="-150" width="97.5" height="30" as="geometry" />
        </mxCell>
        <mxCell id="xNABrJWw2-1LNLXo3Lx6-10" value="juillet 2024" style="text;html=1;strokeColor=none;fillColor=none;align=center;verticalAlign=middle;whiteSpace=wrap;rounded=0;" parent="1" vertex="1">
          <mxGeometry x="1767" y="-150" width="97.5" height="30" as="geometry" />
        </mxCell>
        <mxCell id="xNABrJWw2-1LNLXo3Lx6-11" value="octobre 2023" style="text;html=1;strokeColor=none;fillColor=none;align=center;verticalAlign=middle;whiteSpace=wrap;rounded=0;" parent="1" vertex="1">
          <mxGeometry x="1117" y="-150" width="97.5" height="30" as="geometry" />
        </mxCell>
        <mxCell id="xNABrJWw2-1LNLXo3Lx6-12" value="janvier 2024" style="text;html=1;strokeColor=none;fillColor=none;align=center;verticalAlign=middle;whiteSpace=wrap;rounded=0;" parent="1" vertex="1">
          <mxGeometry x="1327" y="-150" width="97.5" height="30" as="geometry" />
        </mxCell>
        <mxCell id="xNABrJWw2-1LNLXo3Lx6-13" value="avril 2024" style="text;html=1;strokeColor=none;fillColor=none;align=center;verticalAlign=middle;whiteSpace=wrap;rounded=0;" parent="1" vertex="1">
          <mxGeometry x="1537" y="-150" width="97.5" height="30" as="geometry" />
        </mxCell>
        <mxCell id="xNABrJWw2-1LNLXo3Lx6-14" value="juillet 2023" style="text;html=1;strokeColor=none;fillColor=none;align=center;verticalAlign=middle;whiteSpace=wrap;rounded=0;" parent="1" vertex="1">
          <mxGeometry x="937" y="-150" width="97.5" height="30" as="geometry" />
        </mxCell>
        <mxCell id="xNABrJWw2-1LNLXo3Lx6-15" value="&lt;b&gt;&lt;font style=&quot;font-size: 20px;&quot;&gt;Services de préparation d’enquête&lt;/font&gt;&lt;/b&gt;" style="text;html=1;strokeColor=#9673a6;fillColor=#e1d5e7;align=center;verticalAlign=middle;whiteSpace=wrap;rounded=0;" parent="1" vertex="1">
          <mxGeometry y="-200" width="120" height="100" as="geometry" />
        </mxCell>
        <mxCell id="xNABrJWw2-1LNLXo3Lx6-16" value="&lt;div&gt;Version du 18/01/23&lt;/div&gt;" style="rounded=0;whiteSpace=wrap;html=1;fontFamily=Garamond;fontSize=20;strokeColor=none;fillColor=none;" parent="1" vertex="1">
          <mxGeometry x="14.380000000000003" y="-1150" width="120" height="60" as="geometry" />
        </mxCell>
        <mxCell id="xNABrJWw2-1LNLXo3Lx6-17" value="" style="shape=flexArrow;endArrow=classic;html=1;rounded=0;" parent="1" edge="1">
          <mxGeometry width="50" height="50" relative="1" as="geometry">
            <mxPoint x="161.38" y="-600" as="sourcePoint" />
            <mxPoint x="1891.3799999999997" y="-600" as="targetPoint" />
          </mxGeometry>
        </mxCell>
        <mxCell id="xNABrJWw2-1LNLXo3Lx6-18" value="" style="shape=flexArrow;endArrow=classic;html=1;rounded=0;" parent="1" edge="1">
          <mxGeometry width="50" height="50" relative="1" as="geometry">
            <mxPoint x="161.38" y="-525.71" as="sourcePoint" />
            <mxPoint x="1891.3799999999997" y="-525.71" as="targetPoint" />
          </mxGeometry>
        </mxCell>
        <mxCell id="xNABrJWw2-1LNLXo3Lx6-19" value="" style="shape=flexArrow;endArrow=classic;html=1;rounded=0;" parent="1" edge="1">
          <mxGeometry width="50" height="50" relative="1" as="geometry">
            <mxPoint x="161.38" y="-445.71" as="sourcePoint" />
            <mxPoint x="1891.3799999999997" y="-445.71" as="targetPoint" />
          </mxGeometry>
        </mxCell>
        <mxCell id="xNABrJWw2-1LNLXo3Lx6-20" value="" style="shape=flexArrow;endArrow=classic;html=1;rounded=0;" parent="1" edge="1">
          <mxGeometry width="50" height="50" relative="1" as="geometry">
            <mxPoint x="161.3800000000001" y="-365.7100000000002" as="sourcePoint" />
            <mxPoint x="1891.3799999999992" y="-365.7100000000002" as="targetPoint" />
          </mxGeometry>
        </mxCell>
        <mxCell id="xNABrJWw2-1LNLXo3Lx6-21" value="&lt;font style=&quot;font-size: 20px;&quot;&gt;Pogues&lt;/font&gt;" style="text;html=1;strokeColor=none;fillColor=none;align=center;verticalAlign=middle;whiteSpace=wrap;rounded=0;fontStyle=1" parent="1" vertex="1">
          <mxGeometry x="10" y="-620" width="60" height="30" as="geometry" />
        </mxCell>
        <mxCell id="xNABrJWw2-1LNLXo3Lx6-24" value="Eno" style="text;html=1;strokeColor=none;fillColor=none;align=center;verticalAlign=middle;whiteSpace=wrap;rounded=0;fontStyle=1;fontSize=20;" parent="1" vertex="1">
          <mxGeometry x="-10" y="-540" width="60" height="30" as="geometry" />
        </mxCell>
        <mxCell id="xNABrJWw2-1LNLXo3Lx6-25" value="Stromae" style="text;html=1;strokeColor=none;fillColor=none;align=center;verticalAlign=middle;whiteSpace=wrap;rounded=0;fontStyle=1;fontSize=20;" parent="1" vertex="1">
          <mxGeometry x="10" y="-460" width="60" height="30" as="geometry" />
        </mxCell>
        <mxCell id="xNABrJWw2-1LNLXo3Lx6-26" value="Queen" style="text;html=1;strokeColor=none;fillColor=none;align=center;verticalAlign=middle;whiteSpace=wrap;rounded=0;fontStyle=1;fontSize=20;" parent="1" vertex="1">
          <mxGeometry x="0.8100000000000005" y="-380" width="60" height="30" as="geometry" />
        </mxCell>
        <mxCell id="xNABrJWw2-1LNLXo3Lx6-29" value="" style="shape=flexArrow;endArrow=classic;html=1;rounded=0;" parent="1" edge="1">
          <mxGeometry width="50" height="50" relative="1" as="geometry">
            <mxPoint x="160" y="148.57" as="sourcePoint" />
            <mxPoint x="1890" y="150" as="targetPoint" />
          </mxGeometry>
        </mxCell>
        <mxCell id="xNABrJWw2-1LNLXo3Lx6-32" value="" style="shape=flexArrow;endArrow=classic;html=1;rounded=0;" parent="1" edge="1">
          <mxGeometry width="50" height="50" relative="1" as="geometry">
            <mxPoint x="159.99999999999955" y="277" as="sourcePoint" />
            <mxPoint x="1900" y="277" as="targetPoint" />
          </mxGeometry>
        </mxCell>
        <mxCell id="xNABrJWw2-1LNLXo3Lx6-33" value="&lt;font style=&quot;font-size: 14px;&quot;&gt;&lt;b&gt;V ?&lt;br&gt;&lt;/b&gt;&lt;/font&gt;" style="rhombus;whiteSpace=wrap;html=1;fillColor=#d5e8d4;strokeColor=#82b366;" parent="1" vertex="1">
          <mxGeometry x="596" y="273" width="80" height="80" as="geometry" />
        </mxCell>
        <mxCell id="xNABrJWw2-1LNLXo3Lx6-34" value="- Exposer les coordonnées enquêteur&lt;br&gt;- mise à jour qf2 pour les prototypes ?" style="text;html=1;strokeColor=none;fillColor=none;align=center;verticalAlign=middle;whiteSpace=wrap;rounded=0;fontSize=14;" parent="1" vertex="1">
          <mxGeometry x="486" y="350" width="310" height="30" as="geometry" />
        </mxCell>
        <mxCell id="xNABrJWw2-1LNLXo3Lx6-35" value="&lt;font size=&quot;1&quot;&gt;&lt;b style=&quot;font-size: 15px;&quot;&gt;V ?&lt;/b&gt;&lt;/font&gt;" style="rhombus;whiteSpace=wrap;html=1;fillColor=#d5e8d4;strokeColor=#82b366;" parent="1" vertex="1">
          <mxGeometry x="1106" y="273" width="80" height="80" as="geometry" />
        </mxCell>
        <mxCell id="xNABrJWw2-1LNLXo3Lx6-36" value="&lt;br&gt;&lt;div&gt;- alimentation automatisée Opale&lt;/div&gt;&lt;div&gt;- première version de log de chargement d&#39;échantillon&lt;/div&gt;&lt;div&gt;- affectation automatisée site ? (Opale ou avant ?)&lt;br&gt;- affectation automatisée enquêteur ?&lt;/div&gt;&lt;div&gt;- mise à disposition d&#39;un environnement pour les prototypes ? (si pas fait avant)&lt;br&gt;&lt;/div&gt;" style="text;html=1;strokeColor=none;fillColor=none;align=center;verticalAlign=middle;whiteSpace=wrap;rounded=0;fontSize=14;" parent="1" vertex="1">
          <mxGeometry x="1016" y="370" width="292.5" height="30" as="geometry" />
        </mxCell>
        <mxCell id="xNABrJWw2-1LNLXo3Lx6-37" value="&lt;font style=&quot;font-size: 14px;&quot;&gt;&lt;b&gt;V 999&lt;/b&gt;&lt;/font&gt;" style="rhombus;whiteSpace=wrap;html=1;fillColor=#d5e8d4;strokeColor=#82b366;" parent="1" vertex="1">
          <mxGeometry x="1994" y="270" width="80" height="80" as="geometry" />
        </mxCell>
        <mxCell id="xNABrJWw2-1LNLXo3Lx6-38" value="- tableaux de bord, log, alertes, synthèses des chargements d&#39;échantillon" style="text;html=1;strokeColor=none;fillColor=none;align=center;verticalAlign=middle;whiteSpace=wrap;rounded=0;fontSize=14;" parent="1" vertex="1">
          <mxGeometry x="1927" y="340" width="273" height="30" as="geometry" />
        </mxCell>
        <mxCell id="xNABrJWw2-1LNLXo3Lx6-39" value="" style="shape=flexArrow;endArrow=classic;html=1;rounded=0;fillColor=#e1d5e7;strokeColor=#9673a6;" parent="1" edge="1">
          <mxGeometry width="50" height="50" relative="1" as="geometry">
            <mxPoint x="156.61" y="678.5699999999999" as="sourcePoint" />
            <mxPoint x="1886.6100000000001" y="678.5699999999999" as="targetPoint" />
          </mxGeometry>
        </mxCell>
        <mxCell id="xNABrJWw2-1LNLXo3Lx6-40" value="janvier 2023" style="text;html=1;strokeColor=none;fillColor=none;align=center;verticalAlign=middle;whiteSpace=wrap;rounded=0;" parent="1" vertex="1">
          <mxGeometry x="468.87" y="680" width="97.5" height="30" as="geometry" />
        </mxCell>
        <mxCell id="xNABrJWw2-1LNLXo3Lx6-41" value="octobre 2022" style="text;html=1;strokeColor=none;fillColor=none;align=center;verticalAlign=middle;whiteSpace=wrap;rounded=0;" parent="1" vertex="1">
          <mxGeometry x="222.12" y="680" width="97.5" height="30" as="geometry" />
        </mxCell>
        <mxCell id="xNABrJWw2-1LNLXo3Lx6-42" value="avril 2023" style="text;html=1;strokeColor=none;fillColor=none;align=center;verticalAlign=middle;whiteSpace=wrap;rounded=0;" parent="1" vertex="1">
          <mxGeometry x="703.37" y="680" width="97.5" height="30" as="geometry" />
        </mxCell>
        <mxCell id="xNABrJWw2-1LNLXo3Lx6-43" value="juillet 2024" style="text;html=1;strokeColor=none;fillColor=none;align=center;verticalAlign=middle;whiteSpace=wrap;rounded=0;" parent="1" vertex="1">
          <mxGeometry x="1763.3700000000001" y="680" width="97.5" height="30" as="geometry" />
        </mxCell>
        <mxCell id="xNABrJWw2-1LNLXo3Lx6-44" value="octobre 2023" style="text;html=1;strokeColor=none;fillColor=none;align=center;verticalAlign=middle;whiteSpace=wrap;rounded=0;" parent="1" vertex="1">
          <mxGeometry x="1113.3700000000001" y="680" width="97.5" height="30" as="geometry" />
        </mxCell>
        <mxCell id="xNABrJWw2-1LNLXo3Lx6-45" value="janvier 2024" style="text;html=1;strokeColor=none;fillColor=none;align=center;verticalAlign=middle;whiteSpace=wrap;rounded=0;" parent="1" vertex="1">
          <mxGeometry x="1323.3700000000001" y="680" width="97.5" height="30" as="geometry" />
        </mxCell>
        <mxCell id="xNABrJWw2-1LNLXo3Lx6-46" value="avril 2024" style="text;html=1;strokeColor=none;fillColor=none;align=center;verticalAlign=middle;whiteSpace=wrap;rounded=0;" parent="1" vertex="1">
          <mxGeometry x="1533.3700000000001" y="680" width="97.5" height="30" as="geometry" />
        </mxCell>
        <mxCell id="xNABrJWw2-1LNLXo3Lx6-47" value="juillet 2023" style="text;html=1;strokeColor=none;fillColor=none;align=center;verticalAlign=middle;whiteSpace=wrap;rounded=0;" parent="1" vertex="1">
          <mxGeometry x="933.37" y="680" width="97.5" height="30" as="geometry" />
        </mxCell>
        <mxCell id="xNABrJWw2-1LNLXo3Lx6-48" value="&lt;font style=&quot;font-size: 20px;&quot;&gt;Plateformes&lt;/font&gt;&lt;font style=&quot;font-size: 20px;&quot;&gt; de collecte&lt;/font&gt;" style="text;html=1;strokeColor=#9673a6;fillColor=#e1d5e7;align=center;verticalAlign=middle;whiteSpace=wrap;rounded=0;fontStyle=1" parent="1" vertex="1">
          <mxGeometry y="640" width="125.8" height="80" as="geometry" />
        </mxCell>
        <mxCell id="6ZO7rM-hSKWE6RCSlXtH-2" value="" style="shape=flexArrow;endArrow=classic;html=1;rounded=0;" parent="1" edge="1">
          <mxGeometry width="50" height="50" relative="1" as="geometry">
            <mxPoint x="160.57000000000056" y="-285.71000000000026" as="sourcePoint" />
            <mxPoint x="1890.5699999999993" y="-285.71000000000026" as="targetPoint" />
          </mxGeometry>
        </mxCell>
        <mxCell id="6ZO7rM-hSKWE6RCSlXtH-3" value="Public Ennemy" style="text;html=1;strokeColor=none;fillColor=none;align=left;verticalAlign=middle;whiteSpace=wrap;rounded=0;fontStyle=1;fontSize=20;" parent="1" vertex="1">
          <mxGeometry y="-300" width="150" height="30" as="geometry" />
        </mxCell>
        <mxCell id="6ZO7rM-hSKWE6RCSlXtH-5" value="" style="shape=flexArrow;endArrow=classic;html=1;rounded=0;fillColor=#e1d5e7;strokeColor=#9673a6;" parent="1" edge="1">
          <mxGeometry width="50" height="50" relative="1" as="geometry">
            <mxPoint x="165.80000000000064" y="1619.9999999999998" as="sourcePoint" />
            <mxPoint x="1895.7999999999997" y="1619.9999999999998" as="targetPoint" />
          </mxGeometry>
        </mxCell>
        <mxCell id="6ZO7rM-hSKWE6RCSlXtH-6" value="janvier 2023" style="text;html=1;strokeColor=none;fillColor=none;align=center;verticalAlign=middle;whiteSpace=wrap;rounded=0;" parent="1" vertex="1">
          <mxGeometry x="470.8" y="1621.18" width="97.5" height="30" as="geometry" />
        </mxCell>
        <mxCell id="6ZO7rM-hSKWE6RCSlXtH-7" value="octobre 2022" style="text;html=1;strokeColor=none;fillColor=none;align=center;verticalAlign=middle;whiteSpace=wrap;rounded=0;" parent="1" vertex="1">
          <mxGeometry x="224.05" y="1621.18" width="97.5" height="30" as="geometry" />
        </mxCell>
        <mxCell id="6ZO7rM-hSKWE6RCSlXtH-8" value="avril 2023" style="text;html=1;strokeColor=none;fillColor=none;align=center;verticalAlign=middle;whiteSpace=wrap;rounded=0;" parent="1" vertex="1">
          <mxGeometry x="705.3" y="1621.18" width="97.5" height="30" as="geometry" />
        </mxCell>
        <mxCell id="6ZO7rM-hSKWE6RCSlXtH-9" value="juillet 2024" style="text;html=1;strokeColor=none;fillColor=none;align=center;verticalAlign=middle;whiteSpace=wrap;rounded=0;" parent="1" vertex="1">
          <mxGeometry x="1765.3000000000002" y="1621.18" width="97.5" height="30" as="geometry" />
        </mxCell>
        <mxCell id="6ZO7rM-hSKWE6RCSlXtH-10" value="octobre 2023" style="text;html=1;strokeColor=none;fillColor=none;align=center;verticalAlign=middle;whiteSpace=wrap;rounded=0;" parent="1" vertex="1">
          <mxGeometry x="1115.3000000000002" y="1621.18" width="97.5" height="30" as="geometry" />
        </mxCell>
        <mxCell id="6ZO7rM-hSKWE6RCSlXtH-11" value="janvier 2024" style="text;html=1;strokeColor=none;fillColor=none;align=center;verticalAlign=middle;whiteSpace=wrap;rounded=0;" parent="1" vertex="1">
          <mxGeometry x="1325.3000000000002" y="1621.18" width="97.5" height="30" as="geometry" />
        </mxCell>
        <mxCell id="6ZO7rM-hSKWE6RCSlXtH-12" value="avril 2024" style="text;html=1;strokeColor=none;fillColor=none;align=center;verticalAlign=middle;whiteSpace=wrap;rounded=0;" parent="1" vertex="1">
          <mxGeometry x="1535.3000000000002" y="1621.18" width="97.5" height="30" as="geometry" />
        </mxCell>
        <mxCell id="6ZO7rM-hSKWE6RCSlXtH-13" value="juillet 2023" style="text;html=1;strokeColor=none;fillColor=none;align=center;verticalAlign=middle;whiteSpace=wrap;rounded=0;" parent="1" vertex="1">
          <mxGeometry x="935.3" y="1621.18" width="97.5" height="30" as="geometry" />
        </mxCell>
        <mxCell id="6ZO7rM-hSKWE6RCSlXtH-14" value="&lt;font style=&quot;font-size: 20px;&quot;&gt;Services de traitement post-collecte&lt;/font&gt;" style="text;html=1;strokeColor=#9673a6;fillColor=#e1d5e7;align=center;verticalAlign=middle;whiteSpace=wrap;rounded=0;fontStyle=1" parent="1" vertex="1">
          <mxGeometry y="1580" width="135.8" height="90" as="geometry" />
        </mxCell>
        <mxCell id="6ZO7rM-hSKWE6RCSlXtH-16" value="" style="shape=flexArrow;endArrow=classic;html=1;rounded=0;" parent="1" edge="1">
          <mxGeometry width="50" height="50" relative="1" as="geometry">
            <mxPoint x="161.38000000000056" y="1884.29" as="sourcePoint" />
            <mxPoint x="1891.3799999999992" y="1884.29" as="targetPoint" />
          </mxGeometry>
        </mxCell>
        <mxCell id="6ZO7rM-hSKWE6RCSlXtH-17" value="Genesis" style="text;html=1;strokeColor=none;fillColor=none;align=center;verticalAlign=middle;whiteSpace=wrap;rounded=0;fontStyle=1;fontSize=20;" parent="1" vertex="1">
          <mxGeometry x="10.000000000000004" y="1870" width="60" height="30" as="geometry" />
        </mxCell>
        <mxCell id="6ZO7rM-hSKWE6RCSlXtH-18" value="" style="shape=flexArrow;endArrow=classic;html=1;rounded=0;" parent="1" edge="1">
          <mxGeometry width="50" height="50" relative="1" as="geometry">
            <mxPoint x="160.00000000000063" y="1964.29" as="sourcePoint" />
            <mxPoint x="1889.9999999999995" y="1964.29" as="targetPoint" />
          </mxGeometry>
        </mxCell>
        <mxCell id="6ZO7rM-hSKWE6RCSlXtH-19" value="Parliament" style="text;html=1;strokeColor=none;fillColor=none;align=left;verticalAlign=middle;whiteSpace=wrap;rounded=0;fontStyle=1;fontSize=20;" parent="1" vertex="1">
          <mxGeometry x="0.8100000000000023" y="1950" width="150" height="30" as="geometry" />
        </mxCell>
      </root>
    </mxGraphModel>
  </diagram>
</mxfile>
